<svg xmlns="http://www.w3.org/2000/svg" xmlns:xlink="http://www.w3.org/1999/xlink" id="exportSvg" width="490" height="400"><defs/><rect width="490" height="400" transform="translate(0, 0)" fill="rgb(255, 255, 255)" style="fill: rgb(255, 255, 255);"/><g><g><g id="__svelte-dw-svg" clip-path="url(#rect-mask-gZ4IjfiTLggQEY9Z6tAoC)"><clipPath id="rect-mask-gZ4IjfiTLggQEY9Z6tAoC"><rect x="0" y="0" width="490" height="400"/></clipPath><g id="container-svg container-body-svg datawrapper-Dg0HR-8pdpge-svg"><g id="container-svg container-bodyTop-svg datawrapper-Dg0HR-lmtz6e-svg"><g id="container-svg container-bodyCenter-svg datawrapper-Dg0HR-1fgvipr-svg"><g id="chart-svg"><g id="svg-main-svg"><g id="group-svg" transform="translate(0, 16)"><g id="x-grid-svg"/><g id="y-grid-svg"><g id="y-grid-lines-svg grid-y-svg datawrapper-Dg0HR-1mqm0ow-svg"><line x1="0" x2="463" y1="0" y2="0" style="fill: none; stroke-width: 1; stroke-linejoin: miter; stroke-linecap: butt; stroke: rgb(231, 231, 231);"/><line x1="0" x2="463" y1="0" y2="0" transform="translate(0, 81.5)" style="fill: none; stroke-width: 1; stroke-linejoin: miter; stroke-linecap: butt; stroke: rgb(231, 231, 231);"/><line x1="0" x2="463" y1="0" y2="0" transform="translate(0, 163)" style="fill: none; stroke-width: 1; stroke-linejoin: miter; stroke-linecap: butt; stroke: rgb(231, 231, 231);"/><line x1="0" x2="463" y1="0" y2="0" transform="translate(0, 244.5)" style="fill: none; stroke-width: 1; stroke-linejoin: miter; stroke-linecap: butt; stroke: rgb(231, 231, 231);"/></g></g><g id="area-fills-svg"/><g id="lines-svg"><g id="2022-svg"><g id="2022-svg"><path d="M49.898,326L55.202,310.804L60.506,307.85L65.81,305.32L71.114,302.445L76.418,299.628L81.722,299.628L87.026,299.628L92.33,296.86L97.634,294.054L102.938,287.814L108.241,284.575L113.545,281.713L118.849,281.713L124.153,281.713L129.457,281.713L134.761,278.371L140.065,272.061L145.369,269.875L150.673,265.871L155.977,265.871L161.281,265.871L166.585,263.578L171.889,260.483L177.193,254.558L182.497,251.568L187.801,248.894L193.105,248.894L198.409,248.894L203.713,245.367L209.017,231.45L214.321,228.612L219.625,222.411L224.929,219.686L230.233,219.686L235.537,219.686L240.841,217.086L246.145,213.864L251.449,207.395L256.753,204.121L262.057,202.306L267.361,202.306L272.665,202.306L277.969,199.878L283.273,188.9L288.577,182.138L293.881,179.174L299.185,176.337L304.489,176.337L309.793,176.337L315.097,176.337L320.401,169.985L325.705,163.228L331.009,154.574L336.313,151.78L341.616,151.78L346.92,151.78L352.224,147.836L357.528,147.836L357.528,135.172L362.832,129.713L368.136,123.734L373.44,120.733L378.744,120.733L384.048,120.733L389.352,117.624L394.656,114.274L399.96,105.958L405.264,102.495L410.568,100.334L415.872,100.334L421.176,100.334L426.48,97.984L431.784,94.372L437.088,86.654L442.392,83.95L447.696,81.063L453,81.063" stroke="rgb(204,204,204)" id="2022" style="fill: none; stroke-width: 1; stroke-linejoin: round; stroke-linecap: round; stroke: rgb(204, 204, 204);"/></g></g><g id="2023-svg"><g id="2023-svg"><path d="M49.898,326L55.202,309.175L60.506,306.233L65.81,303.142L71.114,300.444L76.418,300.444L81.722,300.444L87.026,297.727L92.33,295.07L97.634,288.565L102.938,280.899L108.241,278.321L113.545,278.321L118.849,278.321L124.153,278.321L129.457,274.866L134.761,268.448L140.065,266.121L145.369,262.643L150.673,262.643L155.977,262.643L161.281,260.118L166.585,257.94L171.889,252.08L177.193,249.441L182.497,247.242L187.801,247.242L193.105,247.242L198.409,245.079L203.713,240.588L209.017,225.387L214.321,223.433L219.625,216.962L224.929,216.962L230.233,216.962L235.537,214.595L240.841,211.965L246.145,204.912L251.449,202.67L256.753,200.317L262.057,200.317L267.361,200.317L272.665,197.902L277.969,195.61L283.273,180.129L288.577,177.818L293.881,175.285L299.185,175.285L304.489,175.285L309.793,175.285L315.097,171.771L320.401,161.366L325.705,152.691L331.009,150.289L336.313,150.289L341.616,150.289L346.92,147.535L352.224,143.254L357.528,143.254L357.528,127.449L362.832,124.982L368.136,118.424L373.44,118.424L378.744,118.424L384.048,115.528L389.352,112.475L394.656,105.044L399.96,102.297L405.264,94.327L410.568,94.327L415.872,94.327L421.176,91.38L426.48,88.715L431.784,80.49L437.088,78.113L442.392,75.329L447.696,75.329L453,75.329" stroke="rgb(204,204,204)" id="2023" style="fill: none; stroke-width: 1; stroke-linejoin: round; stroke-linecap: round; stroke: rgb(204, 204, 204);"/></g></g><g id="2024-svg"><g id="2024-svg"><path d="M44.594,326L49.898,312.857L55.202,307.342L60.506,304.994L65.81,302.304L71.114,302.304L76.418,302.304L81.722,299.806L87.026,297.354L92.33,291.321L97.634,282.481L102.938,279.113L108.241,279.113L113.545,279.113L118.849,279.113L124.153,275.956L129.457,269.858L134.761,267.488L140.065,264.849L145.369,264.849L150.673,264.849L155.977,261.541L161.281,259.434L166.585,253.778L171.889,250.983L177.193,248.73L182.497,248.73L187.801,248.73L193.105,246.406L198.409,244.333L203.713,239.259L209.017,224.308L214.321,218.027L219.625,218.027L224.929,218.027L230.233,215.704L235.537,213.392L240.841,211.083L246.145,208.723L251.449,206.931L256.753,206.931L262.057,206.931L267.361,204.947L272.665,202.297L277.969,195.627L283.273,183.668L288.577,181.101L293.881,181.101L299.185,181.101L304.489,181.101L309.793,178.389L315.097,171.817L320.401,160.925L325.705,158.146L331.009,158.146L336.313,158.146L341.616,155.791L346.92,152.969L352.224,144.679L357.528,140.101L357.528,121.997L362.832,121.997L368.136,121.997L373.44,119.229L378.744,116.429L384.048,112.708L389.352,110.571L394.656,108.111L399.96,108.111L405.264,108.111L410.568,105.94L415.872,102.789L421.176,95.181L426.48,92.622L431.784,88.501L437.088,88.501L442.392,88.501L447.696,86.027L453,83.57" stroke="rgb(204,204,204)" id="2024" style="fill: none; stroke-width: 1; stroke-linejoin: round; stroke-linecap: round; stroke: rgb(204, 204, 204);"/></g></g><g id="2025-svg"><g id="2025-svg"><path d="M44.594,326L49.898,314.152L55.202,307.896L60.506,307.896L65.81,307.896L71.114,305.415L76.418,302.77L81.722,296.238L87.026,294.413L92.33,293.435L97.634,293.435L102.938,293.435L108.241,290.453L113.545,288.09L118.849,278.692L124.153,276.259L129.457,273.496L134.761,273.496L140.065,273.496L145.369,273.496L150.673,270.905L155.977,263.025L161.281,260.481L166.585,258.361L171.889,258.361L177.193,258.361L182.497,256.678L187.801,254.698L193.105,251.283L198.409,248.3L203.713,229.5L209.017,229.5L214.321,229.5L219.625,221.913L224.929,219.416L230.233,217.151L235.537,214.542L240.841,212.303L246.145,212.303L251.449,212.303L256.753,209.882L262.057,207.364L267.361,200.328L272.665,198.085L277.969,194.541L283.273,194.541L288.577,194.541L293.881,194.541L299.185,181.675L304.489,174.955L309.793,171.378L315.097,167.431L320.401,167.431L325.705,167.431L331.009,161.808L336.313,157.64L341.616,146.982L346.92,144.167L352.224,126.469L357.528,126.469L357.528,126.469L362.832,126.469L368.136,118.162L373.44,115.105L378.744,110.693L384.048,107.998L389.352,104.613L394.656,104.613L399.96,104.613L405.264,101.75L410.568,99.933L415.872,90.383L421.176,87.957L426.48,84.146L431.784,84.146L437.088,84.146L442.392,80.885L447.696,78.771L453,71.275" stroke="rgb(204,204,204)" id="2025" style="fill: none; stroke-width: 1; stroke-linejoin: round; stroke-linecap: round; stroke: rgb(204, 204, 204);"/></g></g><g id="2026-svg"><g id="2026-svg"><path d="M44.594,326L49.898,309.099L55.202,309.099L60.506,309.099L65.81,306.973L71.114,304.293L76.418,302.406L81.722,300.114L87.026,298.112L92.33,298.112L97.634,298.112L102.938,295.862L108.241,293.053L113.545,286.424L118.849,280.958L124.153,278.485L129.457,278.485L134.761,278.485L140.065,278.485L145.369,275.95L150.673,269.435L155.977,265.465L161.281,263.764L166.585,263.764L171.889,263.764L177.193,261.764L182.497,259.825L187.801,253.501L193.105,250.918L198.409,234.458L203.713,234.458L209.017,234.458L214.321,226.428L219.625,220.402L224.929,217.987L230.233,215.661L235.537,213.048L240.841,213.048L246.145,213.048L251.449,210.57L256.753,207.967L262.057,200.227L267.361,197.898L272.665,194.207L277.969,194.207L283.273,194.207L288.577,194.207L293.881,179.792L299.185,172.813L304.489,169.216L309.793,165.447L315.097,165.447L320.401,165.447L325.705,159.64L331.009,155.603L336.313,144.344L341.616,141.16L346.92,125.745L352.224,125.745L357.528,125.745" stroke="rgb(229,126,0)" id="2026" style="fill: none; stroke-width: 2; stroke-linejoin: round; stroke-linecap: round; stroke: rgb(229, 126, 0);"/></g></g></g><g id="lbl-connect-lines-svg"><path d="M453,81.06344344221932L460,86.74154884059426" stroke="rgb(204,204,204)" id="2022" style="fill: none; stroke-width: 1; stroke-linejoin: miter; stroke-linecap: butt; stroke-dasharray: 2, 2; stroke: rgb(204, 204, 204);"/><path d="M453,75.32922950333476L460,68.87723143149722" stroke="rgb(204,204,204)" id="2023" style="fill: none; stroke-width: 1; stroke-linejoin: miter; stroke-linecap: butt; stroke-dasharray: 2, 2; stroke: rgb(204, 204, 204);"/><path d="M453,83.57010855274457L460,104.93850662597526" stroke="rgb(204,204,204)" id="2024" style="fill: none; stroke-width: 1; stroke-linejoin: miter; stroke-linecap: butt; stroke-dasharray: 2, 2; stroke: rgb(204, 204, 204);"/><path d="M453,71.27479123181197L460,50.68028583204386" stroke="rgb(204,204,204)" id="2025" style="fill: none; stroke-width: 1; stroke-linejoin: miter; stroke-linecap: butt; stroke-dasharray: 2, 2; stroke: rgb(204, 204, 204);"/><path d="M357.52840909090907,125.74459863852077L460,125.74459863852077" stroke="rgb(229,126,0)" id="2026" style="fill: none; stroke-width: 1; stroke-linejoin: miter; stroke-linecap: butt; stroke-dasharray: 2, 2; stroke: rgb(229, 126, 0);"/></g><g id="x-grid-svg"><g id="x-tick-labels-svg date-axis-svg grid-x-svg datawrapper-Dg0HR-inx4wh-svg svelte-qac4x9-svg" transform="translate(0, 336)"><text transform="translate(44.59375, 12) translate(-21.54492, 0) translate(21.544921875, 0)" style="text-anchor: middle;"><tspan fill="rgb(116, 116, 116)" style="font-family: Roboto; font-weight: 400; font-stretch: 100%; font-size: 12px;" x="0" dominant-baseline="auto" y="0">January</tspan></text><text transform="translate(209.01705, 12) translate(-23.49609, 0) translate(23.49609375, 0)" style="text-anchor: middle;"><tspan fill="rgb(116, 116, 116)" style="font-family: Roboto; font-weight: 400; font-stretch: 100%; font-size: 12px;" x="0" dominant-baseline="auto" y="0">February</tspan></text><text transform="translate(357.52841, 12) translate(-16.92969, 0) translate(16.9296875, 0)" style="text-anchor: middle;"><tspan fill="rgb(116, 116, 116)" style="font-family: Roboto; font-weight: 400; font-stretch: 100%; font-size: 12px;" x="0" dominant-baseline="auto" y="0">March</tspan></text><g id="highlighted-ticks-svg"/></g><g id="x-tick-lines-svg grid-x-svg datawrapper-Dg0HR-qlpn97-svg" transform="translate(0, 326)"><line x1="0" x2="0" y1="5" y2="0" transform="translate(44.59375, 0)" style="fill: none; stroke-width: 1; stroke-linejoin: miter; stroke-linecap: butt; stroke: rgb(24, 24, 24);"/><line x1="0" x2="0" y1="5" y2="0" transform="translate(209.01705, 0)" style="fill: none; stroke-width: 1; stroke-linejoin: miter; stroke-linecap: butt; stroke: rgb(24, 24, 24);"/><line x1="0" x2="0" y1="5" y2="0" transform="translate(357.52841, 0)" style="fill: none; stroke-width: 1; stroke-linejoin: miter; stroke-linecap: butt; stroke: rgb(24, 24, 24);"/></g></g><g id="y-grid-svg"><g id="y-tick-labels-svg number-axis-svg grid-y-svg datawrapper-Dg0HR-1fzbge6-svg"><text transform="translate(0, 239.5) translate(0, 0)"><tspan fill="rgb(162, 162, 162)" style="font-family: Roboto; font-weight: 400; font-stretch: 100%; font-size: 12px;" x="0" dominant-baseline="auto" y="0">500</tspan></text><text transform="translate(0, 158) translate(0, 0)"><tspan fill="rgb(162, 162, 162)" style="font-family: Roboto; font-weight: 400; font-stretch: 100%; font-size: 12px;" x="0" dominant-baseline="auto" y="0">1,000</tspan></text><text transform="translate(0, 76.5) translate(0, 0)"><tspan fill="rgb(162, 162, 162)" style="font-family: Roboto; font-weight: 400; font-stretch: 100%; font-size: 12px;" x="0" dominant-baseline="auto" y="0">1,500</tspan></text><text transform="translate(0, -5) translate(0, 0)"><tspan fill="rgb(162, 162, 162)" style="font-family: Roboto; font-weight: 400; font-stretch: 100%; font-size: 12px;" x="0" dominant-baseline="auto" y="0">2,000</tspan></text></g><g id="y-base-lines-svg grid-y-svg datawrapper-Dg0HR-1ro4gsw-svg"><line x1="463" x2="0" y1="0" y2="0" transform="translate(0, 326)" style="fill: none; stroke-width: 1; stroke-linejoin: miter; stroke-linecap: square; stroke: rgb(24, 24, 24);"/></g></g><g id="value-labels-svg"/><g id="inner-value-labels-svg"/></g></g><text transform="translate(463, 95.734375)" id="2022"><tspan fill="rgb(119,119,119)" x="0" y="12" style="font-family: Roboto; font-weight: 400; font-stretch: 100%; font-size: 12px;">2022</tspan></text><text transform="translate(463, 77.875)" id="2023"><tspan fill="rgb(119,119,119)" x="0" y="12" style="font-family: Roboto; font-weight: 400; font-stretch: 100%; font-size: 12px;">2023</tspan></text><text transform="translate(463, 113.9375)" id="2024"><tspan fill="rgb(119,119,119)" x="0" y="12" style="font-family: Roboto; font-weight: 400; font-stretch: 100%; font-size: 12px;">2024</tspan></text><text transform="translate(463, 59.671875)" id="2025"><tspan fill="rgb(119,119,119)" x="0" y="12" style="font-family: Roboto; font-weight: 400; font-stretch: 100%; font-size: 12px;">2025</tspan></text><text transform="translate(463, 134.734375)" id="2026"><tspan fill="rgb(187,91,0)" x="0" y="12" style="font-family: Roboto; font-weight: 400; font-stretch: 100%; font-size: 12px;">2026</tspan></text><g id="tooltip-layer-svg"><g id="group-svg" transform="translate(0, 16)"/></g></g></g></g><g id="container-svg container-footer-svg datawrapper-Dg0HR-1la8dcw-svg"><text transform="translate(0, 387)"><tspan fill="rgb(136,136,136)" x="0" y="11" style="font-family: Roboto; font-weight: 400; font-stretch: 100%; font-size: 11px;">Chart:</tspan><tspan fill="rgb(136,136,136)" dx="2.734375" style="font-family: Roboto; font-weight: 400; font-stretch: 100%; font-size: 11px;">Seulgi Jung</tspan><tspan fill="rgb(136,136,136)" dx="2.739" style="font-family: Roboto; font-weight: 400; font-stretch: 100%; font-size: 11px;">•</tspan><tspan fill="rgb(136,136,136)" dx="2.739" style="font-family: Roboto; font-weight: 400; font-stretch: 100%; font-size: 11px;">Source:</tspan><tspan fill="rgb(136,136,136)" dx="2.515625" style="font-family: Roboto; font-weight: 400; font-stretch: 100%; font-size: 11px;">The Hamilton Project</tspan><tspan fill="rgb(136,136,136)" dx="2.739" style="font-family: Roboto; font-weight: 400; font-stretch: 100%; font-size: 11px;">•</tspan><tspan fill="rgb(136,136,136)" dx="2.739" style="font-family: Roboto; font-weight: 400; font-stretch: 100%; font-size: 11px;">Created with</tspan><tspan fill="rgb(136,136,136)" dx="2.734375" style="font-family: Roboto; font-weight: 400; font-stretch: 100%; font-size: 11px;">Datawrapper</tspan></text></g></g></g></g></g></svg>