<svg xmlns="http://www.w3.org/2000/svg" xmlns:xlink="http://www.w3.org/1999/xlink" id="exportSvg" width="620" height="400"><defs/><rect width="620" height="400" transform="translate(0, 0)" fill="rgb(255, 255, 255)" style="fill: rgb(255, 255, 255);"/><g><g><g id="__svelte-dw-svg" clip-path="url(#rect-mask-H4zyTRNh0b8QxWEWp-62z)"><clipPath id="rect-mask-H4zyTRNh0b8QxWEWp-62z"><rect x="0" y="0" width="620" height="400"/></clipPath><g id="container-svg container-body-svg datawrapper-OPiR7-8pdpge-svg"><g id="container-svg container-bodyTop-svg datawrapper-OPiR7-lmtz6e-svg"><g id="container-svg container-bodyCenter-svg datawrapper-OPiR7-1fgvipr-svg"><g id="chart-svg"><g id="svg-main-svg"><g id="group-svg" transform="translate(0, 16)"><g id="x-grid-svg"/><g id="y-grid-svg"><g id="y-grid-lines-svg grid-y-svg datawrapper-OPiR7-1mqm0ow-svg"><line x1="0" x2="593" y1="0" y2="0" style="fill: none; stroke-width: 1; stroke-linejoin: miter; stroke-linecap: butt; stroke: rgb(231, 231, 231);"/><line x1="0" x2="593" y1="0" y2="0" transform="translate(0, 81.5)" style="fill: none; stroke-width: 1; stroke-linejoin: miter; stroke-linecap: butt; stroke: rgb(231, 231, 231);"/><line x1="0" x2="593" y1="0" y2="0" transform="translate(0, 163)" style="fill: none; stroke-width: 1; stroke-linejoin: miter; stroke-linecap: butt; stroke: rgb(231, 231, 231);"/><line x1="0" x2="593" y1="0" y2="0" transform="translate(0, 244.5)" style="fill: none; stroke-width: 1; stroke-linejoin: miter; stroke-linecap: butt; stroke: rgb(231, 231, 231);"/></g></g><g id="area-fills-svg"/><g id="lines-svg"><g id="2022-svg"><g id="2022-svg"><path d="M51.496,326L58.399,310.804L65.302,307.85L72.204,305.32L79.107,302.445L86.01,299.628L92.912,299.628L99.815,299.628L106.718,296.86L113.62,294.054L120.523,287.814L127.425,284.575L134.328,281.713L141.231,281.713L148.133,281.713L155.036,281.713L161.939,278.371L168.841,272.061L175.744,269.875L182.647,265.871L189.549,265.871L196.452,265.871L203.355,263.578L210.257,260.483L217.16,254.558L224.063,251.568L230.965,248.894L237.868,248.894L244.77,248.894L251.673,245.367L258.576,230.795L265.478,227.937L272.381,221.693L279.284,218.949L286.186,218.949L293.089,218.949L299.992,216.331L306.894,213.088L313.797,206.573L320.7,203.277L327.602,201.449L334.505,201.449L341.407,201.449L348.31,199.005L355.213,187.951L362.115,181.141L369.018,178.157L375.921,175.3L382.823,175.3L389.726,175.3L396.629,175.3L403.531,168.905L410.434,162.1L417.337,153.387L424.239,150.573L431.142,150.573L438.044,150.573L444.947,146.602L451.85,146.602L458.752,131.707L465.655,126.148L472.558,120.061L479.46,117.006L486.363,117.006L493.266,117.006L500.168,113.84L507.071,110.429L513.974,101.962L520.876,98.437L527.779,96.236L534.681,96.236L541.584,96.236L548.487,93.844L555.389,90.165L562.292,82.307L569.195,79.555L576.097,76.615L583,76.615" stroke="rgb(204,204,204)" id="2022" style="fill: none; stroke-width: 1; stroke-linejoin: round; stroke-linecap: round; stroke: rgb(204, 204, 204);"/></g><g id="2022-svg"><path d="M1,0A1,1,0,1,1,-1,0A1,1,0,1,1,1,0" transform="translate(583, 76.61538) scale(3.5)" style="fill: rgb(204, 204, 204);"/></g></g><g id="2023-svg"><g id="2023-svg"><path d="M51.496,326L58.399,308.11L65.302,304.982L72.204,301.696L79.107,298.827L86.01,298.827L92.912,298.827L99.815,295.938L106.718,293.113L113.62,286.196L120.523,278.045L127.425,275.304L134.328,275.304L141.231,275.304L148.133,275.304L155.036,271.63L161.939,264.806L168.841,262.332L175.744,258.634L182.647,258.634L189.549,258.634L196.452,255.949L203.355,253.633L210.257,247.403L217.16,244.597L224.063,242.259L230.965,242.259L237.868,242.259L244.77,239.959L251.673,235.184L258.576,218.654L265.478,216.569L272.381,209.666L279.284,209.666L286.186,209.666L293.089,207.14L299.992,204.334L306.894,196.809L313.797,194.417L320.7,191.906L327.602,191.906L334.505,191.906L341.407,189.33L348.31,186.885L355.213,170.368L362.115,167.902L369.018,165.2L375.921,165.2L382.823,165.2L389.726,165.2L396.629,161.45L403.531,150.35L410.434,141.093L417.337,138.531L424.239,138.531L431.142,138.531L438.044,135.593L444.947,131.025L451.85,131.025L458.752,113.902L465.655,111.266L472.558,104.261L479.46,104.261L486.363,104.261L493.266,101.167L500.168,97.906L507.071,89.968L513.974,87.034L520.876,78.519L527.779,78.519L534.681,78.519L541.584,75.372L548.487,72.525L555.389,63.739L562.292,61.2L569.195,58.226L576.097,58.226L583,58.226" stroke="rgb(204,204,204)" id="2023" style="fill: none; stroke-width: 1; stroke-linejoin: round; stroke-linecap: round; stroke: rgb(204, 204, 204);"/></g><g id="2023-svg"><path d="M1,0A1,1,0,1,1,-1,0A1,1,0,1,1,1,0" transform="translate(583, 58.22588) scale(3.5)" style="fill: rgb(204, 204, 204);"/></g></g><g id="2024-svg"><g id="2024-svg"><path d="M44.594,326L51.496,311.594L58.399,305.549L65.302,302.976L72.204,300.027L79.107,300.027L86.01,300.027L92.912,297.288L99.815,294.601L106.718,287.988L113.62,278.298L120.523,274.607L127.425,274.607L134.328,274.607L141.231,274.607L148.133,271.146L155.036,264.462L161.939,261.864L168.841,258.972L175.744,258.972L182.647,258.972L189.549,255.346L196.452,253.036L203.355,246.837L210.257,243.773L217.16,241.303L224.063,241.303L230.965,241.303L237.868,238.756L244.77,236.484L251.673,230.922L258.576,214.078L265.478,207.165L272.381,207.165L279.284,207.165L286.186,204.608L293.089,202.063L299.992,199.522L306.894,196.925L313.797,194.953L320.7,194.953L327.602,194.953L334.505,192.769L341.407,189.852L348.31,182.511L355.213,169.35L362.115,166.524L369.018,166.524L375.921,166.524L382.823,166.524L389.726,163.539L396.629,156.306L403.531,144.319L410.434,141.26L417.337,141.26L424.239,141.26L431.142,138.668L438.044,135.562L444.947,126.437L451.85,121.399L458.752,100.479L465.655,100.479L472.558,100.479L479.46,97.419L486.363,94.324L493.266,90.211L500.168,87.848L507.071,85.128L513.974,85.128L520.876,85.128L527.779,82.729L534.681,79.245L541.584,70.835L548.487,68.005L555.389,63.451L562.292,63.451L569.195,63.451L576.097,60.716L583,57.999" stroke="rgb(204,204,204)" id="2024" style="fill: none; stroke-width: 1; stroke-linejoin: round; stroke-linecap: round; stroke: rgb(204, 204, 204);"/></g><g id="2024-svg"><path d="M1,0A1,1,0,1,1,-1,0A1,1,0,1,1,1,0" transform="translate(583, 57.99915) scale(3.5)" style="fill: rgb(204, 204, 204);"/></g></g><g id="2025-svg"><g id="2025-svg"><path d="M44.594,326L51.496,312.625L58.399,305.563L65.302,305.563L72.204,305.563L79.107,302.761L86.01,299.775L92.912,292.401L99.815,290.342L106.718,289.238L113.62,289.238L120.523,289.238L127.425,285.871L134.328,283.204L141.231,272.594L148.133,269.847L155.036,266.728L161.939,266.728L168.841,266.728L175.744,266.728L182.647,263.804L189.549,254.908L196.452,252.036L203.355,249.643L210.257,249.643L217.16,249.643L224.063,247.743L230.965,245.508L237.868,241.653L244.77,238.285L251.673,217.061L258.576,217.061L265.478,217.061L272.381,208.233L279.284,205.408L286.186,202.844L293.089,199.893L299.992,197.359L306.894,197.359L313.797,197.359L320.7,194.621L327.602,191.771L334.505,183.81L341.407,181.273L348.31,177.263L355.213,177.263L362.115,177.263L369.018,177.263L375.921,162.706L382.823,155.103L389.726,151.055L396.629,146.59L403.531,146.59L410.434,146.59L417.337,140.227L424.239,135.512L431.142,123.452L438.044,120.267L444.947,100.244L451.85,100.244L458.752,100.244L465.655,100.244L472.558,90.767L479.46,87.307L486.363,82.314L493.266,79.263L500.168,75.432L507.071,75.432L513.974,75.432L520.876,72.191L527.779,70.135L534.681,59.326L541.584,56.581L548.487,52.268L555.389,52.268L562.292,52.268L569.195,48.577L576.097,46.184L583,37.699" stroke="rgb(204,204,204)" id="2025" style="fill: none; stroke-width: 1; stroke-linejoin: round; stroke-linecap: round; stroke: rgb(204, 204, 204);"/></g><g id="2025-svg"><path d="M1,0A1,1,0,1,1,-1,0A1,1,0,1,1,1,0" transform="translate(583, 37.69946) scale(3.5)" style="fill: rgb(204, 204, 204);"/></g></g><g id="2026-svg"><g id="2026-svg"><path d="M44.594,326L51.496,306.464L58.399,306.464L65.302,306.464L72.204,304.007L79.107,300.909L86.01,298.728L92.912,296.078L99.815,293.765L106.718,293.765L113.62,293.765L120.523,291.164L127.425,287.917L134.328,280.254L141.231,273.937L148.133,271.078L155.036,271.078L161.939,271.078L168.841,271.078L175.744,268.148L182.647,260.617L189.549,256.028L196.452,254.063L203.355,254.063L210.257,254.063L217.16,251.75L224.063,249.509L230.965,242.199L237.868,239.214L244.77,220.187L251.673,220.187L258.576,220.187L265.478,210.599L272.381,203.615L279.284,200.816L286.186,198.12L293.089,195.092L299.992,195.092L306.894,195.092L313.797,192.22L320.7,189.203L327.602,180.232L334.505,177.533L341.407,173.255L348.31,173.255L355.213,173.255L362.115,173.255L369.018,156.549L375.921,148.46L382.823,144.291L389.726,139.923L396.629,139.923L403.531,139.923L410.434,133.193L417.337,128.514L424.239,115.465L431.142,111.776L438.044,93.909L444.947,93.909L451.85,93.909L458.752,93.909L465.655,84.638L472.558,77.442L479.46,71.8L486.363,68.156L493.266,64.533L500.168,64.533L507.071,64.533L513.974,61.743L520.876,58.206L527.779,47.741L534.681,44.561L541.584,39.72L548.487,39.72L555.389,39.72L562.292,35.816L569.195,33.222L576.097,23.792L583,20.806" stroke="rgb(229,126,0)" id="2026" style="fill: none; stroke-width: 2; stroke-linejoin: round; stroke-linecap: round; stroke: rgb(229, 126, 0);"/></g><g id="2026-svg"><path d="M1,0A1,1,0,1,1,-1,0A1,1,0,1,1,1,0" transform="translate(583, 20.80581) scale(3.5)" style="fill: rgb(229, 126, 0);"/></g></g></g><g id="lbl-connect-lines-svg"><path d="M583,76.61537899999999L590,85.63702549977184" stroke="rgb(204,204,204)" id="2022" style="fill: none; stroke-width: 1; stroke-linejoin: miter; stroke-linecap: butt; stroke-dasharray: 2, 2; stroke: rgb(204, 204, 204);"/><path d="M583,58.225881999999984L590,67.6463016086805" stroke="rgb(204,204,204)" id="2023" style="fill: none; stroke-width: 1; stroke-linejoin: miter; stroke-linecap: butt; stroke-dasharray: 2, 2; stroke: rgb(204, 204, 204);"/><path d="M583,57.999149L590,50.273967690187696" stroke="rgb(204,204,204)" id="2024" style="fill: none; stroke-width: 1; stroke-linejoin: miter; stroke-linecap: butt; stroke-dasharray: 2, 2; stroke: rgb(204, 204, 204);"/><path d="M583,37.69945500000003L590,32.894942432088534" stroke="rgb(204,204,204)" id="2025" style="fill: none; stroke-width: 1; stroke-linejoin: miter; stroke-linecap: butt; stroke-dasharray: 2, 2; stroke: rgb(204, 204, 204);"/><path d="M583,20.805808999999993L590,14.89343676927144" stroke="rgb(229,126,0)" id="2026" style="fill: none; stroke-width: 1; stroke-linejoin: miter; stroke-linecap: butt; stroke-dasharray: 2, 2; stroke: rgb(229, 126, 0);"/></g><g id="x-grid-svg"><g id="x-tick-labels-svg date-axis-svg grid-x-svg datawrapper-OPiR7-inx4wh-svg svelte-qac4x9-svg" transform="translate(0, 336)"><text transform="translate(44.59375, 12) translate(-21.54492, 0) translate(21.544921875, 0)" style="text-anchor: middle;"><tspan fill="rgb(116, 116, 116)" style="font-family: Roboto; font-weight: 400; font-stretch: 100%; font-size: 12px;" x="0" dominant-baseline="auto" y="0">January</tspan></text><text transform="translate(258.57572, 12) translate(-23.49609, 0) translate(23.49609375, 0)" style="text-anchor: middle;"><tspan fill="rgb(116, 116, 116)" style="font-family: Roboto; font-weight: 400; font-stretch: 100%; font-size: 12px;" x="0" dominant-baseline="auto" y="0">February</tspan></text><text transform="translate(458.7524, 12) translate(-16.92969, 0) translate(16.9296875, 0)" style="text-anchor: middle;"><tspan fill="rgb(116, 116, 116)" style="font-family: Roboto; font-weight: 400; font-stretch: 100%; font-size: 12px;" x="0" dominant-baseline="auto" y="0">March</tspan></text><g id="highlighted-ticks-svg"/></g><g id="x-tick-lines-svg grid-x-svg datawrapper-OPiR7-qlpn97-svg" transform="translate(0, 326)"><line x1="0" x2="0" y1="5" y2="0" transform="translate(44.59375, 0)" style="fill: none; stroke-width: 1; stroke-linejoin: miter; stroke-linecap: butt; stroke: rgb(24, 24, 24);"/><line x1="0" x2="0" y1="5" y2="0" transform="translate(258.57572, 0)" style="fill: none; stroke-width: 1; stroke-linejoin: miter; stroke-linecap: butt; stroke: rgb(24, 24, 24);"/><line x1="0" x2="0" y1="5" y2="0" transform="translate(458.7524, 0)" style="fill: none; stroke-width: 1; stroke-linejoin: miter; stroke-linecap: butt; stroke: rgb(24, 24, 24);"/></g></g><g id="y-grid-svg"><g id="y-tick-labels-svg number-axis-svg grid-y-svg datawrapper-OPiR7-1fzbge6-svg"><text transform="translate(0, 239.5) translate(0, 0)"><tspan fill="rgb(162, 162, 162)" style="font-family: Roboto; font-weight: 400; font-stretch: 100%; font-size: 12px;" x="0" dominant-baseline="auto" y="0">500</tspan></text><text transform="translate(0, 158) translate(0, 0)"><tspan fill="rgb(162, 162, 162)" style="font-family: Roboto; font-weight: 400; font-stretch: 100%; font-size: 12px;" x="0" dominant-baseline="auto" y="0">1,000</tspan></text><text transform="translate(0, 76.5) translate(0, 0)"><tspan fill="rgb(162, 162, 162)" style="font-family: Roboto; font-weight: 400; font-stretch: 100%; font-size: 12px;" x="0" dominant-baseline="auto" y="0">1,500</tspan></text><text transform="translate(0, -5) translate(0, 0)"><tspan fill="rgb(162, 162, 162)" style="font-family: Roboto; font-weight: 400; font-stretch: 100%; font-size: 12px;" x="0" dominant-baseline="auto" y="0">2,000</tspan></text></g><g id="y-base-lines-svg grid-y-svg datawrapper-OPiR7-1ro4gsw-svg"><line x1="593" x2="0" y1="0" y2="0" transform="translate(0, 326)" style="fill: none; stroke-width: 1; stroke-linejoin: miter; stroke-linecap: square; stroke: rgb(24, 24, 24);"/></g></g><g id="value-labels-svg"/><g id="inner-value-labels-svg"/></g></g><text transform="translate(593, 94.625)" id="2022"><tspan fill="rgb(119,119,119)" x="0" y="12" style="font-family: Roboto; font-weight: 400; font-stretch: 100%; font-size: 12px;">2022</tspan></text><text transform="translate(593, 76.640625)" id="2023"><tspan fill="rgb(119,119,119)" x="0" y="12" style="font-family: Roboto; font-weight: 400; font-stretch: 100%; font-size: 12px;">2023</tspan></text><text transform="translate(593, 59.265625)" id="2024"><tspan fill="rgb(119,119,119)" x="0" y="12" style="font-family: Roboto; font-weight: 400; font-stretch: 100%; font-size: 12px;">2024</tspan></text><text transform="translate(593, 41.890625)" id="2025"><tspan fill="rgb(119,119,119)" x="0" y="12" style="font-family: Roboto; font-weight: 400; font-stretch: 100%; font-size: 12px;">2025</tspan></text><text transform="translate(593, 23.890625)" id="2026"><tspan fill="rgb(187,91,0)" x="0" y="12" style="font-family: Roboto; font-weight: 400; font-stretch: 100%; font-size: 12px;">2026</tspan></text><g id="tooltip-layer-svg"><g id="group-svg" transform="translate(0, 16)"/></g></g></g></g><g id="container-svg container-footer-svg datawrapper-OPiR7-1la8dcw-svg"><text transform="translate(0, 387)"><tspan fill="rgb(136,136,136)" x="0" y="11" style="font-family: Roboto; font-weight: 400; font-stretch: 100%; font-size: 11px;">Chart:</tspan><tspan fill="rgb(136,136,136)" dx="2.734375" style="font-family: Roboto; font-weight: 400; font-stretch: 100%; font-size: 11px;">Seulgi Jung</tspan><tspan fill="rgb(136,136,136)" dx="2.739" style="font-family: Roboto; font-weight: 400; font-stretch: 100%; font-size: 11px;">•</tspan><tspan fill="rgb(136,136,136)" dx="2.739" style="font-family: Roboto; font-weight: 400; font-stretch: 100%; font-size: 11px;">Source:</tspan><tspan fill="rgb(136,136,136)" dx="2.515625" style="font-family: Roboto; font-weight: 400; font-stretch: 100%; font-size: 11px;">The Hamilton Project</tspan><tspan fill="rgb(136,136,136)" dx="2.739" style="font-family: Roboto; font-weight: 400; font-stretch: 100%; font-size: 11px;">•</tspan><tspan fill="rgb(136,136,136)" dx="2.739" style="font-family: Roboto; font-weight: 400; font-stretch: 100%; font-size: 11px;">Created with</tspan><tspan fill="rgb(136,136,136)" dx="2.734375" style="font-family: Roboto; font-weight: 400; font-stretch: 100%; font-size: 11px;">Datawrapper</tspan></text></g></g></g></g></g></svg>