<svg xmlns="http://www.w3.org/2000/svg" xmlns:xlink="http://www.w3.org/1999/xlink" id="exportSvg" width="490" height="400"><defs/><rect width="490" height="400" transform="translate(0, 0)" fill="rgb(255, 255, 255)" style="fill: rgb(255, 255, 255);"/><g><g><g id="__svelte-dw-svg" clip-path="url(#rect-mask-k2L1kSnjJTDDkU2EMQQrt)"><clipPath id="rect-mask-k2L1kSnjJTDDkU2EMQQrt"><rect x="0" y="0" width="490" height="400"/></clipPath><g id="container-svg container-body-svg datawrapper-OPiR7-8pdpge-svg"><g id="container-svg container-bodyTop-svg datawrapper-OPiR7-lmtz6e-svg"><g id="container-svg container-bodyCenter-svg datawrapper-OPiR7-1fgvipr-svg"><g id="chart-svg"><g id="svg-main-svg"><g id="group-svg" transform="translate(0, 16)"><g id="x-grid-svg"/><g id="y-grid-svg"><g id="y-grid-lines-svg grid-y-svg datawrapper-OPiR7-1mqm0ow-svg"><line x1="0" x2="463" y1="0" y2="0" style="fill: none; stroke-width: 1; stroke-linejoin: miter; stroke-linecap: butt; stroke: rgb(231, 231, 231);"/><line x1="0" x2="463" y1="0" y2="0" transform="translate(0, 81.5)" style="fill: none; stroke-width: 1; stroke-linejoin: miter; stroke-linecap: butt; stroke: rgb(231, 231, 231);"/><line x1="0" x2="463" y1="0" y2="0" transform="translate(0, 163)" style="fill: none; stroke-width: 1; stroke-linejoin: miter; stroke-linecap: butt; stroke: rgb(231, 231, 231);"/><line x1="0" x2="463" y1="0" y2="0" transform="translate(0, 244.5)" style="fill: none; stroke-width: 1; stroke-linejoin: miter; stroke-linecap: butt; stroke: rgb(231, 231, 231);"/></g></g><g id="area-fills-svg"/><g id="lines-svg"><g id="2022-svg"><g id="2022-svg"><path d="M49.83,326L55.066,310.804L60.302,307.85L65.538,305.32L70.774,302.445L76.01,299.628L81.246,299.628L86.482,299.628L91.718,296.86L96.954,294.054L102.19,287.814L107.425,284.575L112.661,281.713L117.897,281.713L123.133,281.713L128.369,281.713L133.605,278.371L138.841,272.061L144.077,269.875L149.313,265.871L154.549,265.871L159.785,265.871L165.021,263.578L170.257,260.483L175.493,254.558L180.729,251.568L185.965,248.894L191.201,248.894L196.437,248.894L201.673,245.367L206.909,230.795L212.145,227.937L217.381,221.693L222.617,218.949L227.853,218.949L233.089,218.949L238.325,216.331L243.561,213.088L248.797,206.573L254.033,203.277L259.269,201.449L264.505,201.449L269.741,201.449L274.977,199.005L280.213,187.951L285.449,181.141L290.685,178.157L295.921,175.3L301.157,175.3L306.393,175.3L311.629,175.3L316.865,168.905L322.101,162.1L327.337,153.387L332.573,150.573L337.808,150.573L343.044,150.573L348.28,146.602L353.516,146.602L358.752,131.707L363.988,126.148L369.224,120.061L374.46,117.006L379.696,117.006L384.932,117.006L390.168,113.84L395.404,110.429L400.64,101.962L405.876,98.437L411.112,96.236L416.348,96.236L421.584,96.236L426.82,93.844L432.056,90.165L437.292,82.307L442.528,79.555L447.764,76.615L453,76.615" stroke="rgb(204,204,204)" id="2022" style="fill: none; stroke-width: 1; stroke-linejoin: round; stroke-linecap: round; stroke: rgb(204, 204, 204);"/></g><g id="2022-svg"><path d="M1,0A1,1,0,1,1,-1,0A1,1,0,1,1,1,0" transform="translate(453, 76.61538) scale(3.5)" style="fill: rgb(204, 204, 204);"/></g></g><g id="2023-svg"><g id="2023-svg"><path d="M49.83,326L55.066,308.11L60.302,304.982L65.538,301.696L70.774,298.827L76.01,298.827L81.246,298.827L86.482,295.938L91.718,293.113L96.954,286.196L102.19,278.045L107.425,275.304L112.661,275.304L117.897,275.304L123.133,275.304L128.369,271.63L133.605,264.806L138.841,262.332L144.077,258.634L149.313,258.634L154.549,258.634L159.785,255.949L165.021,253.633L170.257,247.403L175.493,244.597L180.729,242.259L185.965,242.259L191.201,242.259L196.437,239.959L201.673,235.184L206.909,218.654L212.145,216.569L217.381,209.666L222.617,209.666L227.853,209.666L233.089,207.14L238.325,204.334L243.561,196.809L248.797,194.417L254.033,191.906L259.269,191.906L264.505,191.906L269.741,189.33L274.977,186.885L280.213,170.368L285.449,167.902L290.685,165.2L295.921,165.2L301.157,165.2L306.393,165.2L311.629,161.45L316.865,150.35L322.101,141.093L327.337,138.531L332.573,138.531L337.808,138.531L343.044,135.593L348.28,131.025L353.516,131.025L358.752,113.902L363.988,111.266L369.224,104.261L374.46,104.261L379.696,104.261L384.932,101.167L390.168,97.906L395.404,89.968L400.64,87.034L405.876,78.519L411.112,78.519L416.348,78.519L421.584,75.372L426.82,72.525L432.056,63.739L437.292,61.2L442.528,58.226L447.764,58.226L453,58.226" stroke="rgb(204,204,204)" id="2023" style="fill: none; stroke-width: 1; stroke-linejoin: round; stroke-linecap: round; stroke: rgb(204, 204, 204);"/></g><g id="2023-svg"><path d="M1,0A1,1,0,1,1,-1,0A1,1,0,1,1,1,0" transform="translate(453, 58.22588) scale(3.5)" style="fill: rgb(204, 204, 204);"/></g></g><g id="2024-svg"><g id="2024-svg"><path d="M44.594,326L49.83,311.594L55.066,305.549L60.302,302.976L65.538,300.027L70.774,300.027L76.01,300.027L81.246,297.288L86.482,294.601L91.718,287.988L96.954,278.298L102.19,274.607L107.425,274.607L112.661,274.607L117.897,274.607L123.133,271.146L128.369,264.462L133.605,261.864L138.841,258.972L144.077,258.972L149.313,258.972L154.549,255.346L159.785,253.036L165.021,246.837L170.257,243.773L175.493,241.303L180.729,241.303L185.965,241.303L191.201,238.756L196.437,236.484L201.673,230.922L206.909,214.078L212.145,207.165L217.381,207.165L222.617,207.165L227.853,204.608L233.089,202.063L238.325,199.522L243.561,196.925L248.797,194.953L254.033,194.953L259.269,194.953L264.505,192.769L269.741,189.852L274.977,182.511L280.213,169.35L285.449,166.524L290.685,166.524L295.921,166.524L301.157,166.524L306.393,163.539L311.629,156.306L316.865,144.319L322.101,141.26L327.337,141.26L332.573,141.26L337.808,138.668L343.044,135.562L348.28,126.437L353.516,121.399L358.752,100.479L363.988,100.479L369.224,100.479L374.46,97.419L379.696,94.324L384.932,90.211L390.168,87.848L395.404,85.128L400.64,85.128L405.876,85.128L411.112,82.729L416.348,79.245L421.584,70.835L426.82,68.005L432.056,63.451L437.292,63.451L442.528,63.451L447.764,60.716L453,57.999" stroke="rgb(204,204,204)" id="2024" style="fill: none; stroke-width: 1; stroke-linejoin: round; stroke-linecap: round; stroke: rgb(204, 204, 204);"/></g><g id="2024-svg"><path d="M1,0A1,1,0,1,1,-1,0A1,1,0,1,1,1,0" transform="translate(453, 57.99915) scale(3.5)" style="fill: rgb(204, 204, 204);"/></g></g><g id="2025-svg"><g id="2025-svg"><path d="M44.594,326L49.83,312.625L55.066,305.563L60.302,305.563L65.538,305.563L70.774,302.761L76.01,299.775L81.246,292.401L86.482,290.342L91.718,289.238L96.954,289.238L102.19,289.238L107.425,285.871L112.661,283.204L117.897,272.594L123.133,269.847L128.369,266.728L133.605,266.728L138.841,266.728L144.077,266.728L149.313,263.804L154.549,254.908L159.785,252.036L165.021,249.643L170.257,249.643L175.493,249.643L180.729,247.743L185.965,245.508L191.201,241.653L196.437,238.285L201.673,217.061L206.909,217.061L212.145,217.061L217.381,208.233L222.617,205.408L227.853,202.844L233.089,199.893L238.325,197.359L243.561,197.359L248.797,197.359L254.033,194.621L259.269,191.771L264.505,183.81L269.741,181.273L274.977,177.263L280.213,177.263L285.449,177.263L290.685,177.263L295.921,162.706L301.157,155.103L306.393,151.055L311.629,146.59L316.865,146.59L322.101,146.59L327.337,140.227L332.573,135.512L337.808,123.452L343.044,120.267L348.28,100.244L353.516,100.244L358.752,100.244L363.988,100.244L369.224,90.767L374.46,87.307L379.696,82.314L384.932,79.263L390.168,75.432L395.404,75.432L400.64,75.432L405.876,72.191L411.112,70.135L416.348,59.326L421.584,56.581L426.82,52.268L432.056,52.268L437.292,52.268L442.528,48.577L447.764,46.184L453,37.699" stroke="rgb(204,204,204)" id="2025" style="fill: none; stroke-width: 1; stroke-linejoin: round; stroke-linecap: round; stroke: rgb(204, 204, 204);"/></g><g id="2025-svg"><path d="M1,0A1,1,0,1,1,-1,0A1,1,0,1,1,1,0" transform="translate(453, 37.69946) scale(3.5)" style="fill: rgb(204, 204, 204);"/></g></g><g id="2026-svg"><g id="2026-svg"><path d="M44.594,326L49.83,306.464L55.066,306.464L60.302,306.464L65.538,304.007L70.774,300.909L76.01,298.728L81.246,296.078L86.482,293.765L91.718,293.765L96.954,293.765L102.19,291.164L107.425,287.917L112.661,280.254L117.897,273.937L123.133,271.078L128.369,271.078L133.605,271.078L138.841,271.078L144.077,268.148L149.313,260.617L154.549,256.028L159.785,254.063L165.021,254.063L170.257,254.063L175.493,251.75L180.729,249.509L185.965,242.199L191.201,239.214L196.437,220.187L201.673,220.187L206.909,220.187L212.145,210.599L217.381,203.615L222.617,200.816L227.853,198.12L233.089,195.092L238.325,195.092L243.561,195.092L248.797,192.22L254.033,189.203L259.269,180.232L264.505,177.533L269.741,173.255L274.977,173.255L280.213,173.255L285.449,173.255L290.685,156.549L295.921,148.46L301.157,144.291L306.393,139.923L311.629,139.923L316.865,139.923L322.101,133.193L327.337,128.514L332.573,115.465L337.808,111.776L343.044,93.909L348.28,93.909L353.516,93.909L358.752,93.909L363.988,84.638L369.224,77.442L374.46,71.8L379.696,68.156L384.932,64.533L390.168,64.533L395.404,64.533L400.64,61.743L405.876,58.206L411.112,47.741L416.348,44.561L421.584,39.72L426.82,39.72L432.056,39.72L437.292,35.816L442.528,33.222L447.764,23.792L453,20.806" stroke="rgb(229,126,0)" id="2026" style="fill: none; stroke-width: 2; stroke-linejoin: round; stroke-linecap: round; stroke: rgb(229, 126, 0);"/></g><g id="2026-svg"><path d="M1,0A1,1,0,1,1,-1,0A1,1,0,1,1,1,0" transform="translate(453, 20.80581) scale(3.5)" style="fill: rgb(229, 126, 0);"/></g></g></g><g id="lbl-connect-lines-svg"><path d="M453,76.61537899999999L460,85.63702549977184" stroke="rgb(204,204,204)" id="2022" style="fill: none; stroke-width: 1; stroke-linejoin: miter; stroke-linecap: butt; stroke-dasharray: 2, 2; stroke: rgb(204, 204, 204);"/><path d="M453,58.225881999999984L460,67.6463016086805" stroke="rgb(204,204,204)" id="2023" style="fill: none; stroke-width: 1; stroke-linejoin: miter; stroke-linecap: butt; stroke-dasharray: 2, 2; stroke: rgb(204, 204, 204);"/><path d="M453,57.999149L460,50.273967690187696" stroke="rgb(204,204,204)" id="2024" style="fill: none; stroke-width: 1; stroke-linejoin: miter; stroke-linecap: butt; stroke-dasharray: 2, 2; stroke: rgb(204, 204, 204);"/><path d="M453,37.69945500000003L460,32.894942432088534" stroke="rgb(204,204,204)" id="2025" style="fill: none; stroke-width: 1; stroke-linejoin: miter; stroke-linecap: butt; stroke-dasharray: 2, 2; stroke: rgb(204, 204, 204);"/><path d="M453,20.805808999999993L460,14.89343676927144" stroke="rgb(229,126,0)" id="2026" style="fill: none; stroke-width: 1; stroke-linejoin: miter; stroke-linecap: butt; stroke-dasharray: 2, 2; stroke: rgb(229, 126, 0);"/></g><g id="x-grid-svg"><g id="x-tick-labels-svg date-axis-svg grid-x-svg datawrapper-OPiR7-inx4wh-svg svelte-qac4x9-svg" transform="translate(0, 336)"><text transform="translate(44.59375, 12) translate(-21.54492, 0) translate(21.544921875, 0)" style="text-anchor: middle;"><tspan fill="rgb(116, 116, 116)" style="font-family: Roboto; font-weight: 400; font-stretch: 100%; font-size: 12px;" x="0" dominant-baseline="auto" y="0">January</tspan></text><text transform="translate(206.90905, 12) translate(-23.49609, 0) translate(23.49609375, 0)" style="text-anchor: middle;"><tspan fill="rgb(116, 116, 116)" style="font-family: Roboto; font-weight: 400; font-stretch: 100%; font-size: 12px;" x="0" dominant-baseline="auto" y="0">February</tspan></text><text transform="translate(358.7524, 12) translate(-16.92969, 0) translate(16.9296875, 0)" style="text-anchor: middle;"><tspan fill="rgb(116, 116, 116)" style="font-family: Roboto; font-weight: 400; font-stretch: 100%; font-size: 12px;" x="0" dominant-baseline="auto" y="0">March</tspan></text><g id="highlighted-ticks-svg"/></g><g id="x-tick-lines-svg grid-x-svg datawrapper-OPiR7-qlpn97-svg" transform="translate(0, 326)"><line x1="0" x2="0" y1="5" y2="0" transform="translate(44.59375, 0)" style="fill: none; stroke-width: 1; stroke-linejoin: miter; stroke-linecap: butt; stroke: rgb(24, 24, 24);"/><line x1="0" x2="0" y1="5" y2="0" transform="translate(206.90905, 0)" style="fill: none; stroke-width: 1; stroke-linejoin: miter; stroke-linecap: butt; stroke: rgb(24, 24, 24);"/><line x1="0" x2="0" y1="5" y2="0" transform="translate(358.7524, 0)" style="fill: none; stroke-width: 1; stroke-linejoin: miter; stroke-linecap: butt; stroke: rgb(24, 24, 24);"/></g></g><g id="y-grid-svg"><g id="y-tick-labels-svg number-axis-svg grid-y-svg datawrapper-OPiR7-1fzbge6-svg"><text transform="translate(0, 239.5) translate(0, 0)"><tspan fill="rgb(162, 162, 162)" style="font-family: Roboto; font-weight: 400; font-stretch: 100%; font-size: 12px;" x="0" dominant-baseline="auto" y="0">500</tspan></text><text transform="translate(0, 158) translate(0, 0)"><tspan fill="rgb(162, 162, 162)" style="font-family: Roboto; font-weight: 400; font-stretch: 100%; font-size: 12px;" x="0" dominant-baseline="auto" y="0">1,000</tspan></text><text transform="translate(0, 76.5) translate(0, 0)"><tspan fill="rgb(162, 162, 162)" style="font-family: Roboto; font-weight: 400; font-stretch: 100%; font-size: 12px;" x="0" dominant-baseline="auto" y="0">1,500</tspan></text><text transform="translate(0, -5) translate(0, 0)"><tspan fill="rgb(162, 162, 162)" style="font-family: Roboto; font-weight: 400; font-stretch: 100%; font-size: 12px;" x="0" dominant-baseline="auto" y="0">2,000</tspan></text></g><g id="y-base-lines-svg grid-y-svg datawrapper-OPiR7-1ro4gsw-svg"><line x1="463" x2="0" y1="0" y2="0" transform="translate(0, 326)" style="fill: none; stroke-width: 1; stroke-linejoin: miter; stroke-linecap: square; stroke: rgb(24, 24, 24);"/></g></g><g id="value-labels-svg"/><g id="inner-value-labels-svg"/></g></g><text transform="translate(463, 94.625)" id="2022"><tspan fill="rgb(119,119,119)" x="0" y="12" style="font-family: Roboto; font-weight: 400; font-stretch: 100%; font-size: 12px;">2022</tspan></text><text transform="translate(463, 76.640625)" id="2023"><tspan fill="rgb(119,119,119)" x="0" y="12" style="font-family: Roboto; font-weight: 400; font-stretch: 100%; font-size: 12px;">2023</tspan></text><text transform="translate(463, 59.265625)" id="2024"><tspan fill="rgb(119,119,119)" x="0" y="12" style="font-family: Roboto; font-weight: 400; font-stretch: 100%; font-size: 12px;">2024</tspan></text><text transform="translate(463, 41.890625)" id="2025"><tspan fill="rgb(119,119,119)" x="0" y="12" style="font-family: Roboto; font-weight: 400; font-stretch: 100%; font-size: 12px;">2025</tspan></text><text transform="translate(463, 23.890625)" id="2026"><tspan fill="rgb(187,91,0)" x="0" y="12" style="font-family: Roboto; font-weight: 400; font-stretch: 100%; font-size: 12px;">2026</tspan></text><g id="tooltip-layer-svg"><g id="group-svg" transform="translate(0, 16)"/></g></g></g></g><g id="container-svg container-footer-svg datawrapper-OPiR7-1la8dcw-svg"><text transform="translate(0, 387)"><tspan fill="rgb(136,136,136)" x="0" y="11" style="font-family: Roboto; font-weight: 400; font-stretch: 100%; font-size: 11px;">Chart:</tspan><tspan fill="rgb(136,136,136)" dx="2.734375" style="font-family: Roboto; font-weight: 400; font-stretch: 100%; font-size: 11px;">Seulgi Jung</tspan><tspan fill="rgb(136,136,136)" dx="2.739" style="font-family: Roboto; font-weight: 400; font-stretch: 100%; font-size: 11px;">•</tspan><tspan fill="rgb(136,136,136)" dx="2.739" style="font-family: Roboto; font-weight: 400; font-stretch: 100%; font-size: 11px;">Source:</tspan><tspan fill="rgb(136,136,136)" dx="2.515625" style="font-family: Roboto; font-weight: 400; font-stretch: 100%; font-size: 11px;">The Hamilton Project</tspan><tspan fill="rgb(136,136,136)" dx="2.739" style="font-family: Roboto; font-weight: 400; font-stretch: 100%; font-size: 11px;">•</tspan><tspan fill="rgb(136,136,136)" dx="2.739" style="font-family: Roboto; font-weight: 400; font-stretch: 100%; font-size: 11px;">Created with</tspan><tspan fill="rgb(136,136,136)" dx="2.734375" style="font-family: Roboto; font-weight: 400; font-stretch: 100%; font-size: 11px;">Datawrapper</tspan></text></g></g></g></g></g></svg>