<svg xmlns="http://www.w3.org/2000/svg" xmlns:xlink="http://www.w3.org/1999/xlink" id="exportSvg" width="620" height="400"><defs/><rect width="620" height="400" transform="translate(0, 0)" fill="rgb(255, 255, 255)" style="fill: rgb(255, 255, 255);"/><g><g><g id="__svelte-dw-svg" clip-path="url(#rect-mask-onECcdPK7CKAIDoRr7DSq)"><clipPath id="rect-mask-onECcdPK7CKAIDoRr7DSq"><rect x="0" y="0" width="620" height="400"/></clipPath><g id="container-svg container-body-svg datawrapper-XudDH-8pdpge-svg"><g id="container-svg container-bodyTop-svg datawrapper-XudDH-lmtz6e-svg"><g id="container-svg container-bodyCenter-svg datawrapper-XudDH-1fgvipr-svg"><g id="container-svg container-header-svg datawrapper-XudDH-xp3kt5-svg"><text transform="translate(0, 0)"><tspan fill="rgb(0,0,0)" x="0" y="22" style="font-family: Roboto; font-weight: 700; font-stretch: 100%; font-size: 22px;">Federal debt as a share of G.D.P.</tspan></text></g><g id="chart-svg"><g id="svg-main-svg" transform="translate(0, 35)"><g id="group-svg" transform="translate(3.49219, 6)"><g id="x-grid-svg"/><g id="y-grid-svg"><g id="y-grid-lines-svg grid-y-svg datawrapper-XudDH-1mqm0ow-svg"><line x1="0" x2="616.5078125" y1="0" y2="0" transform="translate(0, 31.77817)" style="fill: none; stroke-width: 1; stroke-linejoin: miter; stroke-linecap: butt; stroke: rgb(231, 231, 231);"/><line x1="0" x2="616.5078125" y1="0" y2="0" transform="translate(0, 81.82254)" style="fill: none; stroke-width: 1; stroke-linejoin: miter; stroke-linecap: butt; stroke: rgb(231, 231, 231);"/><line x1="0" x2="616.5078125" y1="0" y2="0" transform="translate(0, 131.8669)" style="fill: none; stroke-width: 1; stroke-linejoin: miter; stroke-linecap: butt; stroke: rgb(231, 231, 231);"/><line x1="0" x2="616.5078125" y1="0" y2="0" transform="translate(0, 181.91127)" style="fill: none; stroke-width: 1; stroke-linejoin: miter; stroke-linecap: butt; stroke: rgb(231, 231, 231);"/><line x1="0" x2="616.5078125" y1="0" y2="0" transform="translate(0, 231.95563)" style="fill: none; stroke-width: 1; stroke-linejoin: miter; stroke-linecap: butt; stroke: rgb(231, 231, 231);"/></g></g><g id="area-fills-svg"><path d="M10,265.485L14.459,267.737L18.918,268.488L23.377,269.489L27.837,270.24L32.308,271.24L36.767,271.991L41.226,271.991L45.685,271.24L50.157,272.492L54.616,272.742L59.075,272.992L63.534,273.492L68.006,273.993L72.465,273.242L76.924,273.743L81.383,275.244L85.855,248.72L90.314,206.433L94.773,198.426L99.232,213.689L103.703,202.93L108.163,204.181L112.622,218.944L117.081,223.198L121.552,227.952L126.011,234.458L130.471,236.96L134.93,239.462L139.401,244.717L143.86,240.713L148.319,226.201L152.779,195.673L157.25,184.163L161.709,171.902L166.168,174.655L170.627,174.405L175.099,181.661L179.558,174.905L184.017,174.405L188.476,175.155L192.947,173.654L197.406,126.862L201.866,89.079L206.325,42.538L210.796,0L215.256,25.272L219.715,55.799L224.174,82.073L228.645,78.319L233.104,97.587L237.564,122.609L242.023,127.363L246.494,131.366L250.953,130.115L255.412,143.127L259.872,153.886L264.343,161.643L268.802,158.14L273.261,164.396L277.72,169.901L282.192,170.401L286.651,174.655L291.11,179.201L295.569,184.871L300.041,190.008L304.5,197.453L308.959,202.247L313.418,201.281L317.889,211.012L322.349,214.297L326.808,214.09L331.267,215.676L335.738,218.939L340.197,224.004L344.657,220.541L349.116,215.118L353.587,214.127L358.046,215.178L362.505,219.55L366.965,218.193L371.436,218.957L375.895,212.176L380.354,201.521L384.813,199.189L389.285,193.574L393.744,185.775L398.203,182.82L402.662,182.096L407.134,183.315L411.593,179.702L416.052,171.575L420.511,165.016L424.983,162.031L429.442,162.306L433.901,162.709L438.36,164.491L442.831,170.306L447.291,177.743L451.75,186.12L456.209,197.668L460.68,203.085L465.139,200.192L469.599,195.181L474.058,192.641L478.529,192.508L482.988,193.394L487.447,193.929L491.907,183.866L496.378,151.509L500.837,130.383L505.296,118.142L509.755,106.775L514.227,102.328L518.686,98.515L523.145,101.31L527.604,91.829L532.076,92.602L536.535,89.162L540.994,84.505L545.453,35.531L549.924,40.03L554.384,44.62L558.843,42.393L563.302,38.281L567.773,33.342L567.773,282L563.302,282L558.843,282L554.384,282L549.924,282L545.453,282L540.994,282L536.535,282L532.076,282L527.604,282L523.145,282L518.686,282L514.227,282L509.755,282L505.296,282L500.837,282L496.378,282L491.907,282L487.447,282L482.988,282L478.529,282L474.058,282L469.599,282L465.139,282L460.68,282L456.209,282L451.75,282L447.291,282L442.831,282L438.36,282L433.901,282L429.442,282L424.983,282L420.511,282L416.052,282L411.593,282L407.134,282L402.662,282L398.203,282L393.744,282L389.285,282L384.813,282L380.354,282L375.895,282L371.436,282L366.965,282L362.505,282L358.046,282L353.587,282L349.116,282L344.657,282L340.197,282L335.738,282L331.267,282L326.808,282L322.349,282L317.889,282L313.418,282L308.959,282L304.5,282L300.041,282L295.569,282L291.11,282L286.651,282L282.192,282L277.72,282L273.261,282L268.802,282L264.343,282L259.872,282L255.412,282L250.953,282L246.494,282L242.023,282L237.564,282L233.104,282L228.645,282L224.174,282L219.715,282L215.256,282L210.796,282L206.325,282L201.866,282L197.406,282L192.947,282L188.476,282L184.017,282L179.558,282L175.099,282L170.627,282L166.168,282L161.709,282L157.25,282L152.779,282L148.319,282L143.86,282L139.401,282L134.93,282L130.471,282L126.011,282L121.552,282L117.081,282L112.622,282L108.163,282L103.703,282L99.232,282L94.773,282L90.314,282L85.855,282L81.383,282L76.924,282L72.465,282L68.006,282L63.534,282L59.075,282L54.616,282L50.157,282L45.685,282L41.226,282L36.767,282L32.308,282L27.837,282L23.377,282L18.918,282L14.459,282L10,282Z" id="area-zero-baseline-debt-pct-gdp-0" style="fill: rgb(251, 236, 217); opacity: 0.3;"/></g><g id="lines-svg"><g id="debt_pct_gdp-svg"><g id="debt_pct_gdp-svg"><path d="M10,265.485L14.459,267.737L18.918,268.488L23.377,269.489L27.837,270.24L32.308,271.24L36.767,271.991L41.226,271.991L45.685,271.24L50.157,272.492L54.616,272.742L59.075,272.992L63.534,273.492L68.006,273.993L72.465,273.242L76.924,273.743L81.383,275.244L85.855,248.72L90.314,206.433L94.773,198.426L99.232,213.689L103.703,202.93L108.163,204.181L112.622,218.944L117.081,223.198L121.552,227.952L126.011,234.458L130.471,236.96L134.93,239.462L139.401,244.717L143.86,240.713L148.319,226.201L152.779,195.673L157.25,184.163L161.709,171.902L166.168,174.655L170.627,174.405L175.099,181.661L179.558,174.905L184.017,174.405L188.476,175.155L192.947,173.654L197.406,126.862L201.866,89.079L206.325,42.538L210.796,0L215.256,25.272L219.715,55.799L224.174,82.073L228.645,78.319L233.104,97.587L237.564,122.609L242.023,127.363L246.494,131.366L250.953,130.115L255.412,143.127L259.872,153.886L264.343,161.643L268.802,158.14L273.261,164.396L277.72,169.901L282.192,170.401L286.651,174.655L291.11,179.201L295.569,184.871L300.041,190.008L304.5,197.453L308.959,202.247L313.418,201.281L317.889,211.012L322.349,214.297L326.808,214.09L331.267,215.676L335.738,218.939L340.197,224.004L344.657,220.541L349.116,215.118L353.587,214.127L358.046,215.178L362.505,219.55L366.965,218.193L371.436,218.957L375.895,212.176L380.354,201.521L384.813,199.189L389.285,193.574L393.744,185.775L398.203,182.82L402.662,182.096L407.134,183.315L411.593,179.702L416.052,171.575L420.511,165.016L424.983,162.031L429.442,162.306L433.901,162.709L438.36,164.491L442.831,170.306L447.291,177.743L451.75,186.12L456.209,197.668L460.68,203.085L465.139,200.192L469.599,195.181L474.058,192.641L478.529,192.508L482.988,193.394L487.447,193.929L491.907,183.866L496.378,151.509L500.837,130.383L505.296,118.142L509.755,106.775L514.227,102.328L518.686,98.515L523.145,101.31L527.604,91.829L532.076,92.602L536.535,89.162L540.994,84.505L545.453,35.531L549.924,40.03L554.384,44.62L558.843,42.393L563.302,38.281L567.773,33.342" stroke="rgb(229,126,0)" id="debt_pct_gdp" style="fill: none; stroke-width: 2; stroke-linejoin: round; stroke-linecap: round; stroke: rgb(229, 126, 0);"/></g><g id="debt_pct_gdp-svg"><path d="M1,0A1,1,0,1,1,-1,0A1,1,0,1,1,1,0" transform="translate(567.77327, 33.34206) scale(3.5)" style="fill: rgb(229, 126, 0);"/></g></g></g><g id="x-grid-svg"><g id="x-tick-labels-svg date-axis-svg grid-x-svg datawrapper-XudDH-inx4wh-svg svelte-qac4x9-svg" transform="translate(0, 292)"><text transform="translate(10, 12) translate(-13.61621, 0) translate(13.6162109375, 0)" style="text-anchor: middle;"><tspan fill="rgb(116, 116, 116)" style="font-family: Roboto; font-weight: 400; font-stretch: 100%; font-size: 12px;" x="0" dominant-baseline="auto" y="0">1900</tspan></text><text transform="translate(99.23199, 12) translate(-13.61621, 0) translate(13.6162109375, 0)" style="text-anchor: middle;"><tspan fill="rgb(116, 116, 116)" style="font-family: Roboto; font-weight: 400; font-stretch: 100%; font-size: 12px;" x="0" dominant-baseline="auto" y="0">1920</tspan></text><text transform="translate(188.47621, 12) translate(-13.61621, 0) translate(13.6162109375, 0)" style="text-anchor: middle;"><tspan fill="rgb(116, 116, 116)" style="font-family: Roboto; font-weight: 400; font-stretch: 100%; font-size: 12px;" x="0" dominant-baseline="auto" y="0">1940</tspan></text><text transform="translate(277.72042, 12) translate(-13.61621, 0) translate(13.6162109375, 0)" style="text-anchor: middle;"><tspan fill="rgb(116, 116, 116)" style="font-family: Roboto; font-weight: 400; font-stretch: 100%; font-size: 12px;" x="0" dominant-baseline="auto" y="0">1960</tspan></text><text transform="translate(366.96463, 12) translate(-13.61621, 0) translate(13.6162109375, 0)" style="text-anchor: middle;"><tspan fill="rgb(116, 116, 116)" style="font-family: Roboto; font-weight: 400; font-stretch: 100%; font-size: 12px;" x="0" dominant-baseline="auto" y="0">1980</tspan></text><text transform="translate(456.20884, 12) translate(-13.61621, 0) translate(13.6162109375, 0)" style="text-anchor: middle;"><tspan fill="rgb(116, 116, 116)" style="font-family: Roboto; font-weight: 400; font-stretch: 100%; font-size: 12px;" x="0" dominant-baseline="auto" y="0">2000</tspan></text><text transform="translate(545.45305, 12) translate(-13.61621, 0) translate(13.6162109375, 0)" style="text-anchor: middle;"><tspan fill="rgb(116, 116, 116)" style="font-family: Roboto; font-weight: 400; font-stretch: 100%; font-size: 12px;" x="0" dominant-baseline="auto" y="0">2020</tspan></text><g id="highlighted-ticks-svg"/></g><g id="x-tick-lines-svg grid-x-svg datawrapper-XudDH-qlpn97-svg" transform="translate(0, 282)"><line x1="0" x2="0" y1="5" y2="0" transform="translate(10, 0)" style="fill: none; stroke-width: 1; stroke-linejoin: miter; stroke-linecap: butt; stroke: rgb(24, 24, 24);"/><line x1="0" x2="0" y1="5" y2="0" transform="translate(99.23199, 0)" style="fill: none; stroke-width: 1; stroke-linejoin: miter; stroke-linecap: butt; stroke: rgb(24, 24, 24);"/><line x1="0" x2="0" y1="5" y2="0" transform="translate(188.47621, 0)" style="fill: none; stroke-width: 1; stroke-linejoin: miter; stroke-linecap: butt; stroke: rgb(24, 24, 24);"/><line x1="0" x2="0" y1="5" y2="0" transform="translate(277.72042, 0)" style="fill: none; stroke-width: 1; stroke-linejoin: miter; stroke-linecap: butt; stroke: rgb(24, 24, 24);"/><line x1="0" x2="0" y1="5" y2="0" transform="translate(366.96463, 0)" style="fill: none; stroke-width: 1; stroke-linejoin: miter; stroke-linecap: butt; stroke: rgb(24, 24, 24);"/><line x1="0" x2="0" y1="5" y2="0" transform="translate(456.20884, 0)" style="fill: none; stroke-width: 1; stroke-linejoin: miter; stroke-linecap: butt; stroke: rgb(24, 24, 24);"/><line x1="0" x2="0" y1="5" y2="0" transform="translate(545.45305, 0)" style="fill: none; stroke-width: 1; stroke-linejoin: miter; stroke-linecap: butt; stroke: rgb(24, 24, 24);"/></g></g><g id="y-grid-svg"><g id="y-tick-labels-svg number-axis-svg grid-y-svg datawrapper-XudDH-1fzbge6-svg" transform="translate(616.50781, 0)"><text transform="translate(0, 226.95563) translate(-13.74414, 0) translate(13.744140625, 0)" style="text-anchor: end;"><tspan fill="rgb(162, 162, 162)" style="font-family: Roboto; font-weight: 400; font-stretch: 100%; font-size: 12px;" x="0" dominant-baseline="auto" y="0">20</tspan></text><text transform="translate(0, 176.91127) translate(-13.74414, 0) translate(13.744140625, 0)" style="text-anchor: end;"><tspan fill="rgb(162, 162, 162)" style="font-family: Roboto; font-weight: 400; font-stretch: 100%; font-size: 12px;" x="0" dominant-baseline="auto" y="0">40</tspan></text><text transform="translate(0, 126.8669) translate(-13.74414, 0) translate(13.744140625, 0)" style="text-anchor: end;"><tspan fill="rgb(162, 162, 162)" style="font-family: Roboto; font-weight: 400; font-stretch: 100%; font-size: 12px;" x="0" dominant-baseline="auto" y="0">60</tspan></text><text transform="translate(0, 76.82254) translate(-13.74414, 0) translate(13.744140625, 0)" style="text-anchor: end;"><tspan fill="rgb(162, 162, 162)" style="font-family: Roboto; font-weight: 400; font-stretch: 100%; font-size: 12px;" x="0" dominant-baseline="auto" y="0">80</tspan></text><text transform="translate(0, 26.77817) translate(-29.23242, 0) translate(29.232421875, 0)" style="text-anchor: end;"><tspan fill="rgb(162, 162, 162)" style="font-family: Roboto; font-weight: 400; font-stretch: 100%; font-size: 12px;" x="0" dominant-baseline="auto" y="0">100%</tspan></text></g><g id="y-base-lines-svg grid-y-svg datawrapper-XudDH-1ro4gsw-svg"><line x1="616.5078125" x2="0" y1="0" y2="0" transform="translate(0, 282)" style="fill: none; stroke-width: 1; stroke-linejoin: miter; stroke-linecap: square; stroke: rgb(24, 24, 24);"/></g></g><g id="value-labels-svg"/><g id="inner-value-labels-svg"/></g></g><line x1="498.078125" x2="498.078125" y1="41" y2="323" style="fill: none; stroke-width: 1; stroke-dasharray: 8, 4; stroke: rgba(136, 136, 136, 0.5);"/><line x1="200.078125" x2="200.078125" y1="41" y2="323" style="fill: none; stroke-width: 1; stroke-dasharray: 8, 4; stroke: rgba(136, 136, 136, 0.5);"/><line x1="548.671875" x2="548.671875" y1="41" y2="323" style="fill: none; stroke-width: 1; stroke-dasharray: 8, 4; stroke: rgba(136, 136, 136, 0.5);"/><text transform="translate(99.484375, 36)"><tspan fill="rgb(114,114,114)" x="0" y="14" style="font-family: Roboto; font-weight: 400; font-stretch: 100%; font-size: 14px;">U.S. entered </tspan><tspan fill="rgb(114,114,114)" x="0" y="30.796875" style="font-family: Roboto; font-weight: 400; font-stretch: 100%; font-size: 14px;">World War II</tspan></text><text transform="translate(504.625, 1)" style="text-anchor: end;"><tspan fill="rgb(114,114,114)" x="0" y="14" style="font-family: Roboto; font-weight: 400; font-stretch: 100%; font-size: 14px;">2008</tspan><tspan fill="rgb(114,114,114)" x="0" y="30.796875" style="font-family: Roboto; font-weight: 400; font-stretch: 100%; font-size: 14px;">financial crisis</tspan></text><text transform="translate(541.484375, 2)"><tspan fill="rgb(114,114,114)" x="0" y="14" style="font-family: Roboto; font-weight: 400; font-stretch: 100%; font-size: 14px;">Covid </tspan><tspan fill="rgb(114,114,114)" x="0" y="30.796875" style="font-family: Roboto; font-weight: 400; font-stretch: 100%; font-size: 14px;">begin</tspan></text><g id="tooltip-layer-svg" transform="translate(0, 35)"><g id="group-svg" transform="translate(3.49219, 6)"/></g></g></g></g><g id="container-svg container-footer-svg datawrapper-XudDH-1la8dcw-svg"><text transform="translate(0, 368)"><tspan fill="rgb(101,101,101)" x="0" y="12" style="font-family: Roboto; font-weight: 400; font-stretch: 100%; font-style: italic; font-size: 12px;">Note: Chart excludes debt the federal government owes itself.</tspan></text><text transform="translate(0, 387)"><tspan fill="rgb(136,136,136)" x="0" y="11" style="font-family: Roboto; font-weight: 400; font-stretch: 100%; font-size: 11px;">Chart:</tspan><tspan fill="rgb(136,136,136)" dx="2.734375" style="font-family: Roboto; font-weight: 400; font-stretch: 100%; font-size: 11px;">Seulgi Jung</tspan><tspan fill="rgb(136,136,136)" dx="2.739" style="font-family: Roboto; font-weight: 400; font-stretch: 100%; font-size: 11px;">•</tspan><tspan fill="rgb(136,136,136)" dx="2.739" style="font-family: Roboto; font-weight: 400; font-stretch: 100%; font-size: 11px;">Source:</tspan><tspan fill="rgb(136,136,136)" dx="2.734375" style="font-family: Roboto; font-weight: 400; font-stretch: 100%; font-size: 11px;">Congressional Budget Office</tspan><tspan fill="rgb(136,136,136)" dx="2.739" style="font-family: Roboto; font-weight: 400; font-stretch: 100%; font-size: 11px;">•</tspan><tspan fill="rgb(136,136,136)" dx="2.739" style="font-family: Roboto; font-weight: 400; font-stretch: 100%; font-size: 11px;">Created with</tspan><tspan fill="rgb(136,136,136)" dx="2.734375" style="font-family: Roboto; font-weight: 400; font-stretch: 100%; font-size: 11px;">Datawrapper</tspan></text></g></g></g></g></g></svg>