<?xml version="1.0" encoding="utf-8"?>
<!-- Generator: Adobe Illustrator 27.7.0, SVG Export Plug-In . SVG Version: 6.00 Build 0)  -->
<svg version="1.1" id="Layer_1" xmlns="http://www.w3.org/2000/svg" xmlns:xlink="http://www.w3.org/1999/xlink" x="0px" y="0px"
	 viewBox="0 0 375 376.7" style="enable-background:new 0 0 375 376.7;" xml:space="preserve">
<style type="text/css">
	.st0{fill:#FBECD9;stroke:#EC9935;stroke-width:1.5;stroke-miterlimit:10;}
	.st1{fill:none;}
	.st2{fill:#E5E5E5;}
	.st3{fill:none;stroke:#000000;stroke-miterlimit:10;}
	.st4{fill:none;stroke:#000000;stroke-miterlimit:10;stroke-dasharray:1.0029,1.0029;}
	.st5{fill:none;stroke:#000000;stroke-miterlimit:10;stroke-dasharray:0.9346,0.9346;}
	.st6{fill:#E5E5E5;stroke:#A39F9F;stroke-width:1.5;stroke-miterlimit:10;}
	.st7{fill:none;stroke:#000000;stroke-miterlimit:10;stroke-dasharray:0.9789,0.9789;}
	.st8{fill:none;stroke:#000000;stroke-miterlimit:10;stroke-dasharray:0.9785,0.9785;}
	.st9{font-family:'Helvetica-Bold';}
	.st10{font-size:6.5845px;}
	.st11{fill:#656565;}
	.st12{font-family:'HelveticaNeue-Italic';}
	.st13{font-size:7.1831px;}
	.st14{enable-background:new    ;}
	.st15{font-family:'Helvetica';}
	.st16{font-size:5.986px;}
	.st17{fill:none;stroke:#000000;stroke-miterlimit:10;stroke-dasharray:1.0005,1.0005;}
	.st18{fill:none;stroke:#000000;stroke-miterlimit:10;stroke-dasharray:1.1716,1.1716;}
	.st19{fill:#707070;}
	.st20{fill:#888888;}
</style>
<rect id="path0_00000005262792532280165610000014751761044125698730_" x="-1275.3" y="-120" class="st0" width="304" height="199.4"/>
<rect x="-1275.3" y="-120" class="st1" width="304" height="199.4"/>
<text transform="matrix(1 0 0 1 -1261.5768 -96.8172)" class="st9" style="font-size:11px;">Social Security</text>
<text transform="matrix(1 0 0 1 -1260.7629 -83.5003)" class="st9" style="font-size:11px;">22%</text>
<rect id="path1_00000101103519939911597560000015273632904255878297_" x="-1275.3" y="85.1" class="st0" width="150.4" height="250.1"/>
<rect x="-1274.8" y="471.4" class="st1" width="588.6" height="14.2"/>
<text transform="matrix(1 0 0 1 -1274.7734 479.9657)" class="st11 st12" style="font-size:12px;">Note: Numbers may not add up to 100 percent due to rounding. </text>
<text transform="matrix(1 0 0 1 -1261.5768 108.2409)" class="st9" style="font-size:11px;">Medicare</text>
<text transform="matrix(1 0 0 1 -1260.7629 121.5578)" class="st9" style="font-size:11px;">13.9%</text>
<rect id="path2_00000160175335274353568850000018355089535418177702_" x="-1119.3" y="85.1" class="st0" width="148" height="250.1"/>
<rect x="-1119.3" y="85.1" class="st1" width="148" height="250.1"/>
<text transform="matrix(1 0 0 1 -1107.3928 108.4503)" class="st14"><tspan x="0" y="0" class="st9" style="font-size:11px;">Other health services </tspan><tspan x="0" y="13.2" class="st15" style="font-size:11px;">(includes Medicaid)</tspan></text>
<text transform="matrix(1 0 0 1 -1106.8427 137.1639)" class="st9" style="font-size:11px;">13.6%</text>
<rect id="path3_00000005262654980947242610000000875153964555797135_" x="-965.7" y="-120" class="st0" width="156.8" height="234"/>
<rect x="-965.7" y="-120" class="st1" width="156.8" height="234"/>
<text transform="matrix(1 0 0 1 -951.4085 -96.8172)" class="st9" style="font-size:11px;">Interest payments</text>
<text transform="matrix(1 0 0 1 -951.1653 -83.5003)" class="st9" style="font-size:11px;">13.5%</text>
<rect id="path4_00000018217816983420970600000003917494390867807930_" x="-803.3" y="-120" class="st0" width="148" height="234"/>
<rect x="-803.3" y="-120" class="st1" width="148" height="234"/>
<text transform="matrix(1 0 0 1 -789.5397 -96.8172)" class="st9" style="font-size:11px;">Defense</text>
<text transform="matrix(1 0 0 1 -788.7258 -83.5003)" class="st9" style="font-size:11px;">12.8%</text>
<rect id="path5_00000003081174530474283620000003626981790218652859_" x="-965.7" y="119.7" class="st2" width="121.4" height="215.5"/>
<rect x="-965.7" y="119.7" class="st1" width="121.4" height="215.5"/>
<text transform="matrix(1 0 0 1 -951.9792 142.8191)" class="st14"><tspan x="0" y="0" class="st15" style="font-size:10px;">Income security </tspan><tspan x="0" y="12" class="st15" style="font-size:10px;">(includes welfare </tspan><tspan x="0" y="24" class="st15" style="font-size:10px;">programs)</tspan></text>
<text transform="matrix(1 0 0 1 -951.46 181.5168)" class="st15" style="font-size:11px;">9.8%</text>
<rect id="path6_00000062193386759845497720000010374300338040835749_" x="-838.6" y="119.7" class="st2" width="183.3" height="90.1"/>
<rect x="-838.6" y="119.7" class="st1" width="183.3" height="90.1"/>
<text transform="matrix(1 0 0 1 -824.9225 142.819)" class="st15" style="font-size:10px;">Other</text>
<text transform="matrix(1 0 0 1 -824.1086 156.1359)" class="st15" style="font-size:10px;">6.3%</text>
<rect id="path7_00000085251488873411863580000004099266735473227927_" x="-838.6" y="215.3" class="st2" width="114.2" height="119.8"/>
<rect x="-838.6" y="215.3" class="st1" width="114.2" height="119.8"/>
<text transform="matrix(1 0 0 1 -824.9225 238.5133)" class="st14"><tspan x="0" y="0" class="st15" style="font-size:10px;">Veterans benefits </tspan><tspan x="0" y="12" class="st15" style="font-size:10px;">and services</tspan></text>
<text transform="matrix(1 0 0 1 -823.6904 267.2565)" class="st15" style="font-size:10px;">5.2%</text>
<rect id="path8_00000098933500616493538340000014711117445131625604_" x="-718.8" y="215.3" class="st2" width="63.5" height="78"/>
<rect x="-718.8" y="215.3" class="st1" width="63.5" height="78"/>
<text transform="matrix(1 0 0 1 -714.473 237.7702)" class="st14"><tspan x="0" y="0" class="st15" style="font-size:10px;">Transpor </tspan><tspan x="0" y="12" class="st15" style="font-size:10px;">-tation</tspan></text>
<text transform="matrix(1 0 0 1 -714.0115 264.8771)" class="st15" style="font-size:10px;">2%</text>
<rect id="path9_00000126288288667102248700000011638817033385640852_" x="-718.8" y="299" class="st2" width="63.5" height="36.2"/>
<rect x="-718.8" y="299" class="st1" width="63.5" height="36.2"/>
<text transform="matrix(1 0 0 1 -711.9749 313.3952)" class="st15" style="font-size:10px;">Education</text>
<text transform="matrix(1 0 0 1 -711.04 327.9941)" class="st15" style="font-size:10px;">1%</text>
<text transform="matrix(1 0 0 1 -1187.4333 371.4577)" class="st9" style="font-size:11px;">FY2024 Education</text>
<g>
	<g>
		<line class="st3" x1="-892.6" y1="395.7" x2="-892.1" y2="395.7"/>
		<line class="st4" x1="-891.1" y1="395.7" x2="-833.5" y2="395.7"/>
		<line class="st3" x1="-833" y1="395.7" x2="-832.5" y2="395.7"/>
	</g>
</g>
<g>
	<g>
		<line class="st3" x1="-834.5" y1="391.9" x2="-834.1" y2="392.2"/>
		<line class="st5" x1="-833.3" y1="392.7" x2="-829" y2="395.4"/>
		<polyline class="st3" points="-828.6,395.6 -828.1,395.9 -828.6,396.1 		"/>
		<line class="st5" x1="-829.4" y1="396.6" x2="-834" y2="399"/>
		<line class="st3" x1="-834.4" y1="399.2" x2="-834.8" y2="399.4"/>
	</g>
</g>
<rect id="path9_00000119082308778983545450000014777767966378208940_" x="-1187.4" y="377.6" class="st6" width="285.9" height="36.2"/>
<rect id="path9_00000163792632557271894360000003269875947309872013_" x="-816.9" y="377.6" class="st6" width="63.5" height="36.2"/>
<text transform="matrix(1 0 0 1 -794.5131 399.9102)" class="st15" style="font-size:10px;">1%</text>
<text transform="matrix(1 0 0 1 -1057.2103 400.1007)" class="st15" style="font-size:10px;">4.5%</text>
<text transform="matrix(1 0 0 1 -816.1007 371.6665)" class="st9" style="font-size:11px;">FY2025</text>
<text transform="matrix(1 0 0 1 -1228.9708 436.1126)" class="st19 st15" style="font-size:12px;">Less than a year after Trump’s second term began, education spending has shrunk by nearly 78%.</text>
<text transform="matrix(1 0 0 1 -1275.3018 494.4907)" class="st20 st15" style="font-size:11px;">Chart: Seulgi Jung • Source: Treasury Department</text>
<text transform="matrix(1 0 0 1 -1275.3018 -123.0731)" class="st9" style="font-size:11px;">Total: $7.18 trillion</text>
<rect id="path0_00000103226841938822826910000004497955709966264962_" x="-564.7" y="10.9" class="st0" width="237.5" height="155.8"/>
<rect x="-564.7" y="10.9" class="st1" width="237.5" height="155.8"/>
<text transform="matrix(1 0 0 1 -553.9689 29.0429)" class="st9" style="font-size:8.5939px;">Social Security</text>
<text transform="matrix(1 0 0 1 -553.3331 39.4472)" class="st9" style="font-size:8.5939px;">22%</text>
<rect id="path1_00000025436426111643792260000007427715853919150776_" x="-564.7" y="171.1" class="st0" width="117.5" height="195.4"/>
<rect x="-564.3" y="473" class="st1" width="459.8" height="11.1"/>
<text transform="matrix(1 0 0 1 -564.2784 479.662)" class="st11 st12" style="font-size:9.3752px;">Note: Numbers may not add up to 100 percent due to rounding. </text>
<text transform="matrix(1 0 0 1 -553.9689 189.247)" class="st9" style="font-size:8.5939px;">Medicare</text>
<text transform="matrix(1 0 0 1 -553.3331 199.6513)" class="st9" style="font-size:8.5939px;">13.9%</text>
<rect id="path2_00000155128652419873516130000002319330943879697812_" x="-442.8" y="171.1" class="st0" width="115.6" height="195.4"/>
<rect x="-442.8" y="171.1" class="st1" width="115.6" height="195.4"/>
<text transform="matrix(1 0 0 1 -433.5099 189.4111)" class="st14"><tspan x="0" y="0" class="st9" style="font-size:8.5939px;">Other health services </tspan><tspan x="0" y="10.3" class="st15" style="font-size:8.5939px;">(includes Medicaid)</tspan></text>
<text transform="matrix(1 0 0 1 -433.0802 211.8437)" class="st9" style="font-size:8.5939px;">13.6%</text>
<rect id="path3_00000026885534008524861520000012527859100637757364_" x="-322.8" y="10.9" class="st0" width="122.5" height="182.8"/>
<rect x="-322.8" y="10.9" class="st1" width="122.5" height="182.8"/>
<text transform="matrix(1 0 0 1 -311.6456 29.0429)" class="st9" style="font-size:8.5939px;">Interest payments</text>
<text transform="matrix(1 0 0 1 -311.4561 39.4472)" class="st9" style="font-size:8.5939px;">13.5%</text>
<rect id="path4_00000070808924610971137990000002136166614102515621_" x="-195.9" y="10.9" class="st0" width="115.6" height="182.8"/>
<rect x="-195.9" y="10.9" class="st1" width="115.6" height="182.8"/>
<text transform="matrix(1 0 0 1 -185.1837 29.0429)" class="st9" style="font-size:8.5939px;">Defense</text>
<text transform="matrix(1 0 0 1 -184.548 39.4472)" class="st9" style="font-size:8.5939px;">12.8%</text>
<rect id="path5_00000000915545375809776720000007709581537865421449_" x="-322.8" y="198.2" class="st2" width="94.9" height="168.4"/>
<rect x="-322.8" y="198.2" class="st1" width="94.9" height="168.4"/>
<text transform="matrix(1 0 0 1 -312.0919 216.2616)" class="st14"><tspan x="0" y="0" class="st15" style="font-size:7.8126px;">Income security </tspan><tspan x="0" y="9.4" class="st15" style="font-size:7.8126px;">(includes welfare </tspan><tspan x="0" y="18.8" class="st15" style="font-size:7.8126px;">programs)</tspan></text>
<text transform="matrix(1 0 0 1 -311.6866 246.495)" class="st15" style="font-size:8.5939px;">9.8%</text>
<rect id="path6_00000062875044958738955500000015634623685327110814_" x="-223.6" y="198.2" class="st2" width="143.2" height="70.4"/>
<rect x="-223.6" y="198.2" class="st1" width="143.2" height="70.4"/>
<text transform="matrix(1 0 0 1 -212.8273 216.2616)" class="st15" style="font-size:7.8126px;">Other</text>
<text transform="matrix(1 0 0 1 -212.1915 226.6659)" class="st15" style="font-size:7.8126px;">6.3%</text>
<rect id="path7_00000123431230349394657510000007814570494606913421_" x="-223.6" y="272.9" class="st2" width="89.2" height="93.6"/>
<rect x="-223.6" y="272.9" class="st1" width="89.2" height="93.6"/>
<text transform="matrix(1 0 0 1 -212.8273 291.0243)" class="st14"><tspan x="0" y="0" class="st15" style="font-size:7.8126px;">Veterans benefits </tspan><tspan x="0" y="9.4" class="st15" style="font-size:7.8126px;">and services</tspan></text>
<text transform="matrix(1 0 0 1 -211.8653 313.4804)" class="st15" style="font-size:7.8126px;">5.2%</text>
<rect id="path8_00000104683833366080946020000010983258353068044694_" x="-129.9" y="272.9" class="st2" width="49.6" height="60.9"/>
<rect x="-129.9" y="272.9" class="st1" width="49.6" height="60.9"/>
<text transform="matrix(1 0 0 1 -126.5362 290.4433)" class="st14"><tspan x="0" y="0" class="st15" style="font-size:7.8126px;">Transpor </tspan><tspan x="0" y="9.4" class="st15" style="font-size:7.8126px;">-tation</tspan></text>
<text transform="matrix(1 0 0 1 -126.1769 311.621)" class="st15" style="font-size:7.8126px;">2%</text>
<rect id="path9_00000036241203941752366770000012037124316593305501_" x="-129.9" y="338.3" class="st2" width="49.6" height="28.3"/>
<rect x="-129.9" y="338.3" class="st1" width="49.6" height="28.3"/>
<text transform="matrix(1 0 0 1 -124.5851 349.5263)" class="st15" style="font-size:7.8126px;">Education</text>
<text transform="matrix(1 0 0 1 -123.8556 360.9325)" class="st15" style="font-size:7.8126px;">1%</text>
<text transform="matrix(1 0 0 1 -496.0431 394.8886)" class="st9" style="font-size:8.5939px;">FY2024 Education</text>
<g>
	<g>
		<line class="st3" x1="-265.7" y1="413.8" x2="-265.2" y2="413.8"/>
		<line class="st7" x1="-264.2" y1="413.8" x2="-219.7" y2="413.8"/>
		<line class="st3" x1="-219.2" y1="413.8" x2="-218.7" y2="413.8"/>
	</g>
</g>
<g>
	<g>
		<line class="st3" x1="-220.3" y1="410.9" x2="-219.9" y2="411.1"/>
		<line class="st8" x1="-219.1" y1="411.6" x2="-216.2" y2="413.5"/>
		<polyline class="st3" points="-215.8,413.7 -215.3,414 -215.8,414.2 		"/>
		<line class="st8" x1="-216.6" y1="414.7" x2="-219.7" y2="416.3"/>
		<line class="st3" x1="-220.1" y1="416.5" x2="-220.6" y2="416.7"/>
	</g>
</g>
<rect id="path9_00000124842197861545534290000004120440802903857830_" x="-496" y="399.7" class="st6" width="223.3" height="28.3"/>
<rect id="path9_00000053514116118953360580000008839285337063258045_" x="-206.6" y="399.7" class="st6" width="49.6" height="28.3"/>
<text transform="matrix(1 0 0 1 -189.0694 417.1171)" class="st15" style="font-size:7.8126px;">1%</text>
<text transform="matrix(1 0 0 1 -394.3048 417.2665)" class="st15" style="font-size:7.8126px;">4.5%</text>
<text transform="matrix(1 0 0 1 -205.9347 395.0517)" class="st9" style="font-size:8.5939px;">FY2025</text>
<text transform="matrix(1 0 0 1 -528.4952 445.4013)" class="st19 st15" style="font-size:9.3752px;">Less than a year after Trump’s second term began, education spending has shrunk by nearly 78%.</text>
<text transform="matrix(1 0 0 1 -564.6915 491.0107)" class="st20 st15" style="font-size:8.5939px;">Chart: Seulgi Jung • Source: Treasury Department</text>
<text transform="matrix(1 0 0 1 -564.6915 8.5302)" class="st9" style="font-size:8.5939px;">Total: $7.18 trillion</text>
<rect id="path0_00000085223784129798609980000015253667816726377615_" x="2.4" y="7.4" class="st0" width="182" height="119.4"/>
<rect x="2.4" y="7.4" class="st1" width="182" height="119.4"/>
<text transform="matrix(1 0 0 1 10.6299 21.3031)" class="st9 st10">Social Security</text>
<text transform="matrix(1 0 0 1 11.1172 29.2743)" class="st9 st10">22%</text>
<rect id="path1_00000108280064898466814500000008322254031403904898_" x="2.4" y="130.2" class="st0" width="90" height="149.7"/>
<rect x="2.7" y="361.4" class="st1" width="352.3" height="8.5"/>
<text transform="matrix(1 0 0 1 2.7305 366.5634)" class="st11 st12 st13">Note: Numbers may not add up to 100 percent due to rounding. </text>
<text transform="matrix(1 0 0 1 10.6299 144.0507)" class="st9 st10">Medicare</text>
<text transform="matrix(1 0 0 1 11.1172 152.0214)" class="st9 st10">13.9%</text>
<rect id="path2_00000122704519780740026990000005782731901114093469_" x="95.8" y="130.2" class="st0" width="88.6" height="149.7"/>
<rect x="95.8" y="130.2" class="st1" width="88.6" height="149.7"/>
<text transform="matrix(1 0 0 1 102.9229 144.1757)" class="st14"><tspan x="0" y="0" class="st9 st10">Other health services </tspan><tspan x="0" y="7.9" class="st15 st10">(includes Medicaid)</tspan></text>
<text transform="matrix(1 0 0 1 103.253 161.3642)" class="st9 st10">13.6%</text>
<rect id="path3_00000158722603351622266950000009670296512501739446_" x="187.7" y="7.4" class="st0" width="93.9" height="140.1"/>
<rect x="187.7" y="7.4" class="st1" width="93.9" height="140.1"/>
<text transform="matrix(1 0 0 1 196.295 21.3031)" class="st9 st10">Interest payments</text>
<text transform="matrix(1 0 0 1 196.4395 29.2743)" class="st9 st10">13.5%</text>
<rect id="path4_00000096022606376287578450000010266232639518732184_" x="285" y="7.4" class="st0" width="88.6" height="140.1"/>
<rect x="285" y="7.4" class="st1" width="88.6" height="140.1"/>
<text transform="matrix(1 0 0 1 293.1885 21.3031)" class="st9 st10">Defense</text>
<text transform="matrix(1 0 0 1 293.6749 29.2743)" class="st9 st10">12.8%</text>
<rect id="path5_00000060734671104585415270000002662547898758597771_" x="187.7" y="150.9" class="st2" width="72.7" height="129"/>
<rect x="187.7" y="150.9" class="st1" width="72.7" height="129"/>
<text transform="matrix(1 0 0 1 195.9532 164.748)" class="st14"><tspan x="0" y="0" class="st15 st16">Income security </tspan><tspan x="0" y="7.2" class="st15 st16">(includes welfare </tspan><tspan x="0" y="14.4" class="st15 st16">programs)</tspan></text>
<text transform="matrix(1 0 0 1 196.2637 187.913)" class="st15 st10">9.8%</text>
<rect id="path6_00000034773902023910952620000015162136987055890072_" x="263.8" y="150.9" class="st2" width="109.8" height="53.9"/>
<rect x="263.8" y="150.9" class="st1" width="109.8" height="53.9"/>
<text transform="matrix(1 0 0 1 272.0089 164.748)" class="st15 st16">Other</text>
<text transform="matrix(1 0 0 1 272.4962 172.7197)" class="st15 st16">6.3%</text>
<rect id="path7_00000018940493583006850240000007975151570131050934_" x="263.8" y="208.2" class="st2" width="68.4" height="71.7"/>
<rect x="263.8" y="208.2" class="st1" width="68.4" height="71.7"/>
<text transform="matrix(1 0 0 1 272.0089 222.0302)" class="st14"><tspan x="0" y="0" class="st15 st16">Veterans benefits </tspan><tspan x="0" y="7.2" class="st15 st16">and services</tspan></text>
<text transform="matrix(1 0 0 1 272.7462 239.2363)" class="st15 st16">5.2%</text>
<rect id="path8_00000079445349230226650850000011427943616957203881_" x="335.5" y="208.2" class="st2" width="38" height="46.7"/>
<rect x="335.5" y="208.2" class="st1" width="38" height="46.7"/>
<text transform="matrix(1 0 0 1 338.1241 221.5868)" class="st14"><tspan x="0" y="0" class="st15 st16">Transpor </tspan><tspan x="0" y="7.2" class="st15 st16">-tation</tspan></text>
<text transform="matrix(1 0 0 1 338.3985 237.8114)" class="st15 st16">2%</text>
<rect id="path9_00000085242867376594871680000010161033036543523474_" x="335.5" y="258.2" class="st2" width="38" height="21.7"/>
<rect x="335.5" y="258.2" class="st1" width="38" height="21.7"/>
<text transform="matrix(1 0 0 1 339.6192 266.8544)" class="st15 st16">Education</text>
<text transform="matrix(1 0 0 1 340.1778 275.5946)" class="st15 st16">1%</text>
<text transform="matrix(1 0 0 1 55.0108 301.6103)" class="st9 st10">FY2024 Education</text>
<g>
	<g>
		<line class="st3" x1="231.5" y1="316.1" x2="232" y2="316.1"/>
		<line class="st17" x1="233" y1="316.1" x2="266.5" y2="316.1"/>
		<line class="st3" x1="267" y1="316.1" x2="267.5" y2="316.1"/>
	</g>
</g>
<g>
	<g>
		<line class="st3" x1="266.3" y1="313.8" x2="266.7" y2="314.1"/>
		<line class="st18" x1="267.7" y1="314.7" x2="269.2" y2="315.7"/>
		<polyline class="st3" points="269.7,316 270.1,316.3 269.6,316.5 		"/>
		<line class="st18" x1="268.6" y1="317" x2="267" y2="317.8"/>
		<line class="st3" x1="266.5" y1="318.1" x2="266.1" y2="318.4"/>
	</g>
</g>
<rect id="path9_00000140003547788394078650000012629400529346299300_" x="55" y="305.3" class="st6" width="171.1" height="21.7"/>
<rect id="path9_00000073680861110180237310000015998386279766110363_" x="276.8" y="305.3" class="st6" width="38" height="21.7"/>
<text transform="matrix(1 0 0 1 290.211 318.6425)" class="st15 st16">1%</text>
<text transform="matrix(1 0 0 1 132.961 318.7567)" class="st15 st16">4.5%</text>
<text transform="matrix(1 0 0 1 277.2891 301.7362)" class="st9 st10">FY2025</text>
<text transform="matrix(1 0 0 1 30.1465 340.3134)" class="st19 st15 st13">Less than a year after Trump’s second term began, education spending has shrunk by nearly 78%.</text>
<text transform="matrix(1 0 0 1 2.4141 375.2567)" class="st20 st15 st10">Chart: Seulgi Jung • Source: Treasury Department</text>
<text transform="matrix(1 0 0 1 2.4141 5.5859)" class="st9 st10">Total: $7.18 trillion</text>
</svg>
