<svg xmlns="http://www.w3.org/2000/svg" xmlns:xlink="http://www.w3.org/1999/xlink" id="exportSvg" width="375" height="400"><defs/><rect width="375" height="400" transform="translate(0, 0)" fill="rgb(255, 255, 255)" style="fill: rgb(255, 255, 255);"/><g><g><g id="__svelte-dw-svg" clip-path="url(#rect-mask-z0AfeWcWUyZbCiSKt8p1Q)"><clipPath id="rect-mask-z0AfeWcWUyZbCiSKt8p1Q"><rect x="0" y="0" width="375" height="400"/></clipPath><g id="container-svg container-body-svg datawrapper-OPiR7-8pdpge-svg"><g id="container-svg container-bodyTop-svg datawrapper-OPiR7-lmtz6e-svg"><g id="container-svg container-bodyCenter-svg datawrapper-OPiR7-1fgvipr-svg"><g id="chart-svg"><g id="svg-main-svg"><g id="group-svg" transform="translate(0, 16)"><g id="x-grid-svg"/><g id="y-grid-svg"><g id="y-grid-lines-svg grid-y-svg datawrapper-OPiR7-1mqm0ow-svg"><line x1="0" x2="348" y1="0" y2="0" style="fill: none; stroke-width: 1; stroke-linejoin: miter; stroke-linecap: butt; stroke: rgb(231, 231, 231);"/><line x1="0" x2="348" y1="0" y2="0" transform="translate(0, 78.25)" style="fill: none; stroke-width: 1; stroke-linejoin: miter; stroke-linecap: butt; stroke: rgb(231, 231, 231);"/><line x1="0" x2="348" y1="0" y2="0" transform="translate(0, 156.5)" style="fill: none; stroke-width: 1; stroke-linejoin: miter; stroke-linecap: butt; stroke: rgb(231, 231, 231);"/><line x1="0" x2="348" y1="0" y2="0" transform="translate(0, 234.75)" style="fill: none; stroke-width: 1; stroke-linejoin: miter; stroke-linecap: butt; stroke: rgb(231, 231, 231);"/></g></g><g id="area-fills-svg"/><g id="lines-svg"><g id="2022-svg"><g id="2022-svg"><path d="M48.355,313L52.117,298.41L55.879,295.574L59.64,293.145L63.402,290.384L67.163,287.679L70.925,287.679L74.687,287.679L78.448,285.022L82.21,282.328L85.972,276.337L89.733,273.227L93.495,270.479L97.256,270.479L101.018,270.479L104.78,270.479L108.541,267.27L112.303,261.212L116.065,259.113L119.826,255.269L123.588,255.269L127.349,255.269L131.111,253.067L134.873,250.096L138.634,244.407L142.396,241.536L146.157,238.968L149.919,238.968L153.681,238.968L157.442,235.582L161.204,221.592L164.966,218.848L168.727,212.853L172.489,210.218L176.25,210.218L180.012,210.218L183.774,207.705L187.535,204.59L191.297,198.336L195.058,195.171L198.82,193.416L202.582,193.416L206.343,193.416L210.105,191.069L213.867,180.456L217.628,173.918L221.39,171.052L225.151,168.31L228.913,168.31L232.675,168.31L236.436,168.31L240.198,162.169L243.96,155.636L247.721,147.27L251.483,144.569L255.244,144.569L259.006,144.569L262.768,140.756L266.529,140.756L270.291,126.455L274.052,121.118L277.814,115.273L281.576,112.34L285.337,112.34L289.099,112.34L292.861,109.3L296.622,106.026L300.384,97.896L304.145,94.511L307.907,92.398L311.669,92.398L315.43,92.398L319.192,90.101L322.954,86.57L326.715,79.025L330.477,76.382L334.238,73.56L338,73.56" stroke="rgb(204,204,204)" id="2022" style="fill: none; stroke-width: 1; stroke-linejoin: round; stroke-linecap: round; stroke: rgb(204, 204, 204);"/></g><g id="2022-svg"><path d="M1,0A1,1,0,1,1,-1,0A1,1,0,1,1,1,0" transform="translate(338, 73.56016) scale(3.5)" style="fill: rgb(204, 204, 204);"/></g></g><g id="2023-svg"><g id="2023-svg"><path d="M48.355,313L52.117,295.823L55.879,292.82L59.64,289.665L63.402,286.91L67.163,286.91L70.925,286.91L74.687,284.137L78.448,281.424L82.21,274.784L85.972,266.958L89.733,264.326L93.495,264.326L97.256,264.326L101.018,264.326L104.78,260.798L108.541,254.246L112.303,251.871L116.065,248.32L119.826,248.32L123.588,248.32L127.349,245.743L131.111,243.519L134.873,237.537L138.634,234.843L142.396,232.598L146.157,232.598L149.919,232.598L153.681,230.39L157.442,225.806L161.204,209.935L164.966,207.933L168.727,201.305L172.489,201.305L176.25,201.305L180.012,198.88L183.774,196.186L187.535,188.961L191.297,186.664L195.058,184.254L198.82,184.254L202.582,184.254L206.343,181.78L210.105,179.433L213.867,163.574L217.628,161.207L221.39,158.612L225.151,158.612L228.913,158.612L232.675,158.612L236.436,155.012L240.198,144.354L243.96,135.467L247.721,133.006L251.483,133.006L255.244,133.006L259.006,130.186L262.768,125.8L266.529,125.8L270.291,109.36L274.052,106.829L277.814,100.104L281.576,100.104L285.337,100.104L289.099,97.133L292.861,94.002L296.622,86.38L300.384,83.563L304.145,75.388L307.907,75.388L311.669,75.388L315.43,72.366L319.192,69.632L322.954,61.197L326.715,58.759L330.477,55.904L334.238,55.904L338,55.904" stroke="rgb(204,204,204)" id="2023" style="fill: none; stroke-width: 1; stroke-linejoin: round; stroke-linecap: round; stroke: rgb(204, 204, 204);"/></g><g id="2023-svg"><path d="M1,0A1,1,0,1,1,-1,0A1,1,0,1,1,1,0" transform="translate(338, 55.90399) scale(3.5)" style="fill: rgb(204, 204, 204);"/></g></g><g id="2024-svg"><g id="2024-svg"><path d="M44.594,313L48.355,299.168L52.117,293.365L55.879,290.894L59.64,288.063L63.402,288.063L67.163,288.063L70.925,285.433L74.687,282.853L78.448,276.504L82.21,267.2L85.972,263.657L89.733,263.657L93.495,263.657L97.256,263.657L101.018,260.333L104.78,253.916L108.541,251.422L112.303,248.645L116.065,248.645L119.826,248.645L123.588,245.163L127.349,242.946L131.111,236.993L134.873,234.052L138.634,231.681L142.396,231.681L146.157,231.681L149.919,229.235L153.681,227.054L157.442,221.713L161.204,205.541L164.966,198.904L168.727,198.904L172.489,198.904L176.25,196.449L180.012,194.005L183.774,191.566L187.535,189.072L191.297,187.179L195.058,187.179L198.82,187.179L202.582,185.082L206.343,182.282L210.105,175.233L213.867,162.596L217.628,159.884L221.39,159.884L225.151,159.884L228.913,159.884L232.675,157.017L236.436,150.073L240.198,138.564L243.96,135.627L247.721,135.627L251.483,135.627L255.244,133.139L259.006,130.157L262.768,121.395L266.529,116.558L270.291,96.472L274.052,96.472L277.814,96.472L281.576,93.534L285.337,90.562L289.099,86.614L292.861,84.345L296.622,81.734L300.384,81.734L304.145,81.734L307.907,79.43L311.669,76.085L315.43,68.011L319.192,65.294L322.954,60.92L326.715,60.92L330.477,60.92L334.238,58.294L338,55.686" stroke="rgb(204,204,204)" id="2024" style="fill: none; stroke-width: 1; stroke-linejoin: round; stroke-linecap: round; stroke: rgb(204, 204, 204);"/></g><g id="2024-svg"><path d="M1,0A1,1,0,1,1,-1,0A1,1,0,1,1,1,0" transform="translate(338, 55.6863) scale(3.5)" style="fill: rgb(204, 204, 204);"/></g></g><g id="2025-svg"><g id="2025-svg"><path d="M44.594,313L48.355,300.158L52.117,293.378L55.879,293.378L59.64,293.378L63.402,290.688L67.163,287.821L70.925,280.741L74.687,278.764L78.448,277.704L82.21,277.704L85.972,277.704L89.733,274.472L93.495,271.91L97.256,261.724L101.018,259.087L104.78,256.092L108.541,256.092L112.303,256.092L116.065,256.092L119.826,253.284L123.588,244.743L127.349,241.986L131.111,239.688L134.873,239.688L138.634,239.688L142.396,237.863L146.157,235.718L149.919,232.016L153.681,228.783L157.442,208.406L161.204,208.406L164.966,208.406L168.727,199.929L172.489,197.216L176.25,194.755L180.012,191.921L183.774,189.489L187.535,189.489L191.297,189.489L195.058,186.86L198.82,184.123L202.582,176.48L206.343,174.044L210.105,170.194L213.867,170.194L217.628,170.194L221.39,170.194L225.151,156.218L228.913,148.918L232.675,145.032L236.436,140.744L240.198,140.744L243.96,140.744L247.721,134.635L251.483,130.108L255.244,118.53L259.006,115.471L262.768,96.247L266.529,96.247L270.291,96.247L274.052,96.247L277.814,87.147L281.576,83.825L285.337,79.031L289.099,76.102L292.861,72.424L296.622,72.424L300.384,72.424L304.145,69.312L307.907,67.338L311.669,56.961L315.43,54.324L319.192,50.183L322.954,50.183L326.715,50.183L330.477,46.64L334.238,44.342L338,36.196" stroke="rgb(204,204,204)" id="2025" style="fill: none; stroke-width: 1; stroke-linejoin: round; stroke-linecap: round; stroke: rgb(204, 204, 204);"/></g><g id="2025-svg"><path d="M1,0A1,1,0,1,1,-1,0A1,1,0,1,1,1,0" transform="translate(338, 36.1961) scale(3.5)" style="fill: rgb(204, 204, 204);"/></g></g><g id="2026-svg"><g id="2026-svg"><path d="M44.594,313L48.355,294.243L52.117,294.243L55.879,294.243L59.64,291.884L63.402,288.909L67.163,286.816L70.925,284.272L74.687,282.051L78.448,282.051L82.21,282.051L85.972,279.553L89.733,276.436L93.495,269.078L97.256,263.013L101.018,260.268L104.78,260.268L108.541,260.268L112.303,260.268L116.065,257.455L119.826,250.224L123.588,245.818L127.349,243.931L131.111,243.931L134.873,243.931L138.634,241.711L142.396,239.559L146.157,232.541L149.919,229.675L153.681,211.407L157.442,211.407L161.204,211.407L164.966,202.201L168.727,195.495L172.489,192.808L176.25,190.22L180.012,187.312L183.774,187.312L187.535,187.312L191.297,184.555L195.058,181.658L198.82,173.045L202.582,170.453L206.343,166.347L210.105,166.347L213.867,166.347L217.628,166.347L221.39,150.306L225.151,142.54L228.913,138.537L232.675,134.343L236.436,134.343L240.198,134.343L243.96,127.882L247.721,123.389L251.483,110.861L255.244,107.318L259.006,90.164L262.768,90.164L266.529,90.164L270.291,90.164L274.052,81.263L277.814,74.354L281.576,68.937L285.337,65.438L289.099,61.96L292.861,61.96L296.622,61.96L300.384,59.281L304.145,55.885L307.907,45.837L311.669,42.784L315.43,38.136L319.192,38.136L322.954,38.136L326.715,34.388L330.477,31.897L334.238,22.843L338,19.976" stroke="rgb(229,126,0)" id="2026" style="fill: none; stroke-width: 2; stroke-linejoin: round; stroke-linecap: round; stroke: rgb(229, 126, 0);"/></g><g id="2026-svg"><path d="M1,0A1,1,0,1,1,-1,0A1,1,0,1,1,1,0" transform="translate(338, 19.97613) scale(3.5)" style="fill: rgb(229, 126, 0);"/></g></g></g><g id="lbl-connect-lines-svg"><path d="M338,73.56016449999998L345,83.40627806357436" stroke="rgb(204,204,204)" id="2022" style="fill: none; stroke-width: 1; stroke-linejoin: miter; stroke-linecap: butt; stroke-dasharray: 2, 2; stroke: rgb(204, 204, 204);"/><path d="M338,55.90399099999999L345,65.5012191093497" stroke="rgb(204,204,204)" id="2023" style="fill: none; stroke-width: 1; stroke-linejoin: miter; stroke-linecap: butt; stroke-dasharray: 2, 2; stroke: rgb(204, 204, 204);"/><path d="M338,55.6862995L345,48.268487911004186" stroke="rgb(204,204,204)" id="2024" style="fill: none; stroke-width: 1; stroke-linejoin: miter; stroke-linecap: butt; stroke-dasharray: 2, 2; stroke: rgb(204, 204, 204);"/><path d="M338,36.19610250000003L345,31.030281292268054" stroke="rgb(204,204,204)" id="2025" style="fill: none; stroke-width: 1; stroke-linejoin: miter; stroke-linecap: butt; stroke-dasharray: 2, 2; stroke: rgb(204, 204, 204);"/><path d="M338,19.976129499999992L345,13.116420623803666" stroke="rgb(229,126,0)" id="2026" style="fill: none; stroke-width: 1; stroke-linejoin: miter; stroke-linecap: butt; stroke-dasharray: 2, 2; stroke: rgb(229, 126, 0);"/></g><g id="x-grid-svg"><g id="x-tick-labels-svg date-axis-svg grid-x-svg datawrapper-OPiR7-inx4wh-svg svelte-qac4x9-svg" transform="translate(0, 323)"><text transform="translate(44.59375, 12) translate(-21.54492, 0) translate(21.544921875, 0)" style="text-anchor: middle;"><tspan fill="rgb(116, 116, 116)" style="font-family: Roboto; font-weight: 400; font-stretch: 100%; font-size: 12px;" x="0" dominant-baseline="auto" y="0">January</tspan></text><text transform="translate(161.20393, 12) translate(-23.49609, 0) translate(23.49609375, 0)" style="text-anchor: middle;"><tspan fill="rgb(116, 116, 116)" style="font-family: Roboto; font-weight: 400; font-stretch: 100%; font-size: 12px;" x="0" dominant-baseline="auto" y="0">February</tspan></text><text transform="translate(270.29087, 12) translate(-16.92969, 0) translate(16.9296875, 0)" style="text-anchor: middle;"><tspan fill="rgb(116, 116, 116)" style="font-family: Roboto; font-weight: 400; font-stretch: 100%; font-size: 12px;" x="0" dominant-baseline="auto" y="0">March</tspan></text><g id="highlighted-ticks-svg"/></g><g id="x-tick-lines-svg grid-x-svg datawrapper-OPiR7-qlpn97-svg" transform="translate(0, 313)"><line x1="0" x2="0" y1="5" y2="0" transform="translate(44.59375, 0)" style="fill: none; stroke-width: 1; stroke-linejoin: miter; stroke-linecap: butt; stroke: rgb(24, 24, 24);"/><line x1="0" x2="0" y1="5" y2="0" transform="translate(161.20393, 0)" style="fill: none; stroke-width: 1; stroke-linejoin: miter; stroke-linecap: butt; stroke: rgb(24, 24, 24);"/><line x1="0" x2="0" y1="5" y2="0" transform="translate(270.29087, 0)" style="fill: none; stroke-width: 1; stroke-linejoin: miter; stroke-linecap: butt; stroke: rgb(24, 24, 24);"/></g></g><g id="y-grid-svg"><g id="y-tick-labels-svg number-axis-svg grid-y-svg datawrapper-OPiR7-1fzbge6-svg"><text transform="translate(0, 229.75) translate(0, 0)"><tspan fill="rgb(162, 162, 162)" style="font-family: Roboto; font-weight: 400; font-stretch: 100%; font-size: 12px;" x="0" dominant-baseline="auto" y="0">500</tspan></text><text transform="translate(0, 151.5) translate(0, 0)"><tspan fill="rgb(162, 162, 162)" style="font-family: Roboto; font-weight: 400; font-stretch: 100%; font-size: 12px;" x="0" dominant-baseline="auto" y="0">1,000</tspan></text><text transform="translate(0, 73.25) translate(0, 0)"><tspan fill="rgb(162, 162, 162)" style="font-family: Roboto; font-weight: 400; font-stretch: 100%; font-size: 12px;" x="0" dominant-baseline="auto" y="0">1,500</tspan></text><text transform="translate(0, -5) translate(0, 0)"><tspan fill="rgb(162, 162, 162)" style="font-family: Roboto; font-weight: 400; font-stretch: 100%; font-size: 12px;" x="0" dominant-baseline="auto" y="0">2,000</tspan></text></g><g id="y-base-lines-svg grid-y-svg datawrapper-OPiR7-1ro4gsw-svg"><line x1="348" x2="0" y1="0" y2="0" transform="translate(0, 313)" style="fill: none; stroke-width: 1; stroke-linejoin: miter; stroke-linecap: square; stroke: rgb(24, 24, 24);"/></g></g><g id="value-labels-svg"/><g id="inner-value-labels-svg"/></g></g><text transform="translate(348, 92.40625)" id="2022"><tspan fill="rgb(119,119,119)" x="0" y="12" style="font-family: Roboto; font-weight: 400; font-stretch: 100%; font-size: 12px;">2022</tspan></text><text transform="translate(348, 74.5)" id="2023"><tspan fill="rgb(119,119,119)" x="0" y="12" style="font-family: Roboto; font-weight: 400; font-stretch: 100%; font-size: 12px;">2023</tspan></text><text transform="translate(348, 57.265625)" id="2024"><tspan fill="rgb(119,119,119)" x="0" y="12" style="font-family: Roboto; font-weight: 400; font-stretch: 100%; font-size: 12px;">2024</tspan></text><text transform="translate(348, 40.015625)" id="2025"><tspan fill="rgb(119,119,119)" x="0" y="12" style="font-family: Roboto; font-weight: 400; font-stretch: 100%; font-size: 12px;">2025</tspan></text><text transform="translate(348, 22.109375)" id="2026"><tspan fill="rgb(187,91,0)" x="0" y="12" style="font-family: Roboto; font-weight: 400; font-stretch: 100%; font-size: 12px;">2026</tspan></text><g id="tooltip-layer-svg"><g id="group-svg" transform="translate(0, 16)"/></g></g></g></g><g id="container-svg container-footer-svg datawrapper-OPiR7-1la8dcw-svg"><text transform="translate(0, 374)"><tspan fill="rgb(136,136,136)" x="0" y="11" style="font-family: Roboto; font-weight: 400; font-stretch: 100%; font-size: 11px;">Chart:</tspan><tspan fill="rgb(136,136,136)" dx="2.734375" style="font-family: Roboto; font-weight: 400; font-stretch: 100%; font-size: 11px;">Seulgi Jung</tspan><tspan fill="rgb(136,136,136)" dx="2.739" style="font-family: Roboto; font-weight: 400; font-stretch: 100%; font-size: 11px;">•</tspan><tspan fill="rgb(136,136,136)" dx="2.739" style="font-family: Roboto; font-weight: 400; font-stretch: 100%; font-size: 11px;">Source:</tspan><tspan fill="rgb(136,136,136)" dx="2.515625" style="font-family: Roboto; font-weight: 400; font-stretch: 100%; font-size: 11px;">The Hamilton Project</tspan><tspan fill="rgb(136,136,136)" dx="2.739" style="font-family: Roboto; font-weight: 400; font-stretch: 100%; font-size: 11px;">•</tspan><tspan fill="rgb(136,136,136)" dx="2.739" style="font-family: Roboto; font-weight: 400; font-stretch: 100%; font-size: 11px;">Created with</tspan><tspan fill="rgb(136,136,136)" x="0" y="24" style="font-family: Roboto; font-weight: 400; font-stretch: 100%; font-size: 11px;">Datawrapper</tspan></text></g></g></g></g></g></svg>