<svg xmlns="http://www.w3.org/2000/svg" xmlns:xlink="http://www.w3.org/1999/xlink" id="exportSvg" width="375" height="420"><defs/><rect width="375" height="420" transform="translate(0, 0)" fill="rgb(255, 255, 255)" style="fill: rgb(255, 255, 255);"/><g><g><g id="__svelte-dw-svg" clip-path="url(#rect-mask-XYXTKxPrQDV0QVJ9M-iLi)"><clipPath id="rect-mask-XYXTKxPrQDV0QVJ9M-iLi"><rect x="0" y="0" width="375" height="420"/></clipPath><g id="container-svg container-body-svg datawrapper-Dg0HR-8pdpge-svg"><g id="container-svg container-bodyTop-svg datawrapper-Dg0HR-lmtz6e-svg"><g id="container-svg container-bodyCenter-svg datawrapper-Dg0HR-1fgvipr-svg"><g id="chart-svg"><g id="svg-main-svg"><g id="group-svg" transform="translate(0, 16)"><g id="x-grid-svg"/><g id="y-grid-svg"><g id="y-grid-lines-svg grid-y-svg datawrapper-Dg0HR-1mqm0ow-svg"><line x1="0" x2="348" y1="0" y2="0" style="fill: none; stroke-width: 1; stroke-linejoin: miter; stroke-linecap: butt; stroke: rgb(231, 231, 231);"/><line x1="0" x2="348" y1="0" y2="0" transform="translate(0, 83.25)" style="fill: none; stroke-width: 1; stroke-linejoin: miter; stroke-linecap: butt; stroke: rgb(231, 231, 231);"/><line x1="0" x2="348" y1="0" y2="0" transform="translate(0, 166.5)" style="fill: none; stroke-width: 1; stroke-linejoin: miter; stroke-linecap: butt; stroke: rgb(231, 231, 231);"/><line x1="0" x2="348" y1="0" y2="0" transform="translate(0, 249.75)" style="fill: none; stroke-width: 1; stroke-linejoin: miter; stroke-linecap: butt; stroke: rgb(231, 231, 231);"/></g></g><g id="area-fills-svg"/><g id="lines-svg"><g id="2022-svg"><g id="2022-svg"><path d="M48.404,333L52.215,317.478L56.025,314.46L59.836,311.876L63.646,308.939L67.457,306.061L71.267,306.061L75.078,306.061L78.888,303.234L82.698,300.368L86.509,293.994L90.319,290.686L94.13,287.762L97.94,287.762L101.751,287.762L105.561,287.762L109.372,284.348L113.182,277.903L116.993,275.67L120.803,271.58L124.614,271.58L128.424,271.58L132.235,269.238L136.045,266.076L139.856,260.024L143.666,256.97L147.476,254.238L151.287,254.238L155.097,254.238L158.908,250.636L162.718,236.42L166.529,233.52L170.339,227.186L174.15,224.403L177.96,224.403L181.771,224.403L185.581,221.747L189.392,218.457L193.202,211.848L197.013,208.504L200.823,206.65L204.634,206.65L208.444,206.65L212.254,204.17L216.065,192.956L219.875,186.049L223.686,183.021L227.496,180.123L231.307,180.123L235.117,180.123L238.928,180.123L242.738,173.635L246.549,166.732L250.359,157.893L254.17,155.039L257.98,155.039L261.791,155.039L265.601,151.01L269.412,151.01L269.412,138.075L273.222,132.498L277.032,126.391L280.843,123.326L284.653,123.326L288.464,123.326L292.274,120.149L296.085,116.728L299.895,108.234L303.706,104.696L307.516,102.489L311.327,102.489L315.137,102.489L318.948,100.088L322.758,96.398L326.569,88.514L330.379,85.753L334.19,82.804L338,82.804" stroke="rgb(204,204,204)" id="2022" style="fill: none; stroke-width: 1; stroke-linejoin: round; stroke-linecap: round; stroke: rgb(204, 204, 204);"/></g></g><g id="2023-svg"><g id="2023-svg"><path d="M48.404,333L52.215,315.813L56.025,312.809L59.836,309.651L63.646,306.895L67.457,306.895L71.267,306.895L75.078,304.12L78.888,301.406L82.698,294.761L86.509,286.93L90.319,284.297L94.13,284.297L97.94,284.297L101.751,284.297L105.561,280.768L109.372,274.212L113.182,271.835L116.993,268.282L120.803,268.282L124.614,268.282L128.424,265.703L132.235,263.478L136.045,257.493L139.856,254.797L143.666,252.551L147.476,252.551L151.287,252.551L155.097,250.342L158.908,245.754L162.718,230.226L166.529,228.23L170.339,221.621L174.15,221.621L177.96,221.621L181.771,219.203L185.581,216.516L189.392,209.312L193.202,207.021L197.013,204.618L200.823,204.618L204.634,204.618L208.444,202.152L212.254,199.811L216.065,183.997L219.875,181.636L223.686,179.049L227.496,179.049L231.307,179.049L235.117,179.049L238.928,175.459L242.738,164.831L246.549,155.969L250.359,153.516L254.17,153.516L257.98,153.516L261.791,150.703L265.601,146.33L269.412,146.33L269.412,130.186L273.222,127.666L277.032,120.967L280.843,120.967L284.653,120.967L288.464,118.008L292.274,114.89L296.085,107.299L299.895,104.494L303.706,96.352L307.516,96.352L311.327,96.352L315.137,93.342L318.948,90.62L322.758,82.219L326.569,79.79L330.379,76.947L334.19,76.947L338,76.947" stroke="rgb(204,204,204)" id="2023" style="fill: none; stroke-width: 1; stroke-linejoin: round; stroke-linecap: round; stroke: rgb(204, 204, 204);"/></g></g><g id="2024-svg"><g id="2024-svg"><path d="M44.594,333L48.404,319.575L52.215,313.942L56.025,311.543L59.836,308.796L63.646,308.796L67.457,308.796L71.267,306.243L75.078,303.739L78.888,297.576L82.698,288.546L86.509,285.107L90.319,285.107L94.13,285.107L97.94,285.107L101.751,281.881L105.561,275.652L109.372,273.232L113.182,270.536L116.993,270.536L120.803,270.536L124.614,267.157L128.424,265.005L132.235,259.227L136.045,256.372L139.856,254.07L143.666,254.07L147.476,254.07L151.287,251.697L155.097,249.58L158.908,244.396L162.718,229.125L166.529,222.709L170.339,222.709L174.15,222.709L177.96,220.335L181.771,217.974L185.581,215.615L189.392,213.205L193.202,211.374L197.013,211.374L200.823,211.374L204.634,209.348L208.444,206.641L212.254,199.828L216.065,187.612L219.875,184.99L223.686,184.99L227.496,184.99L231.307,184.99L235.117,182.219L238.928,175.506L242.738,164.381L246.549,161.542L250.359,161.542L254.17,161.542L257.98,159.137L261.791,156.254L265.601,147.785L269.412,143.109L269.412,124.617L273.222,124.617L277.032,124.617L280.843,121.789L284.653,118.929L288.464,115.129L292.274,112.945L296.085,110.432L299.895,110.432L303.706,110.432L307.516,108.215L311.327,104.996L315.137,97.225L318.948,94.61L322.758,90.402L326.569,90.402L330.379,90.402L334.19,87.875L338,85.365" stroke="rgb(204,204,204)" id="2024" style="fill: none; stroke-width: 1; stroke-linejoin: round; stroke-linecap: round; stroke: rgb(204, 204, 204);"/></g></g><g id="2025-svg"><g id="2025-svg"><path d="M44.594,333L48.404,320.898L52.215,314.507L56.025,314.507L59.836,314.507L63.646,311.973L67.457,309.271L71.267,302.599L75.078,300.735L78.888,299.736L82.698,299.736L86.509,299.736L90.319,296.69L94.13,294.276L97.94,284.676L101.751,282.191L105.561,279.369L109.372,279.369L113.182,279.369L116.993,279.369L120.803,276.722L124.614,268.673L128.424,266.074L132.235,263.909L136.045,263.909L139.856,263.909L143.666,262.189L147.476,260.167L151.287,256.679L155.097,253.632L158.908,234.428L162.718,234.428L166.529,234.428L170.339,226.678L174.15,224.128L177.96,221.813L181.771,219.149L185.581,216.861L189.392,216.861L193.202,216.861L197.013,214.389L200.823,211.816L204.634,204.629L208.444,202.338L212.254,198.719L216.065,198.719L219.875,198.719L223.686,198.719L227.496,185.576L231.307,178.712L235.117,175.058L238.928,171.026L242.738,171.026L246.549,171.026L250.359,165.282L254.17,161.025L257.98,150.138L261.791,147.262L265.601,129.185L269.412,129.185L269.412,129.185L273.222,129.185L277.032,120.699L280.843,117.577L284.653,113.07L288.464,110.317L292.274,106.859L296.085,106.859L299.895,106.859L303.706,103.934L307.516,102.079L311.327,92.324L315.137,89.846L318.948,85.953L322.758,85.953L326.569,85.953L330.379,82.622L334.19,80.462L338,72.805" stroke="rgb(204,204,204)" id="2025" style="fill: none; stroke-width: 1; stroke-linejoin: round; stroke-linecap: round; stroke: rgb(204, 204, 204);"/></g></g><g id="2026-svg"><g id="2026-svg"><path d="M44.594,333L48.404,315.736L52.215,315.736L56.025,315.736L59.836,313.564L63.646,310.827L67.457,308.9L71.267,306.558L75.078,304.514L78.888,304.514L82.698,304.514L86.509,302.215L90.319,299.346L94.13,292.574L97.94,286.991L101.751,284.464L105.561,284.464L109.372,284.464L113.182,284.464L116.993,281.876L120.803,275.22L124.614,271.165L128.424,269.428L132.235,269.428L136.045,269.428L139.856,267.385L143.666,265.404L147.476,258.944L151.287,256.306L155.097,239.492L158.908,239.492L162.718,239.492L166.529,231.29L170.339,225.135L174.15,222.668L177.96,220.292L181.771,217.623L185.581,217.623L189.392,217.623L193.202,215.092L197.013,212.433L200.823,204.526L204.634,202.147L208.444,198.377L212.254,198.377L216.065,198.377L219.875,198.377L223.686,183.653L227.496,176.524L231.307,172.849L235.117,168.999L238.928,168.999L242.738,168.999L246.549,163.068L250.359,158.944L254.17,147.443L257.98,144.191L261.791,128.445L265.601,128.445L269.412,128.445" stroke="rgb(229,126,0)" id="2026" style="fill: none; stroke-width: 2; stroke-linejoin: round; stroke-linecap: round; stroke: rgb(229, 126, 0);"/></g></g></g><g id="lbl-connect-lines-svg"><path d="M338,82.80406952840194L345,88.40947779898369" stroke="rgb(204,204,204)" id="2022" style="fill: none; stroke-width: 1; stroke-linejoin: miter; stroke-linecap: butt; stroke-dasharray: 2, 2; stroke: rgb(204, 204, 204);"/><path d="M338,76.94672829635114L345,70.5508100249625" stroke="rgb(204,204,204)" id="2023" style="fill: none; stroke-width: 1; stroke-linejoin: miter; stroke-linecap: butt; stroke-dasharray: 2, 2; stroke: rgb(204, 204, 204);"/><path d="M338,85.36455873639247L345,106.60244081721432" stroke="rgb(204,204,204)" id="2024" style="fill: none; stroke-width: 1; stroke-linejoin: miter; stroke-linecap: butt; stroke-dasharray: 2, 2; stroke: rgb(204, 204, 204);"/><path d="M338,72.80523153433555L345,52.35785945432055" stroke="rgb(204,204,204)" id="2025" style="fill: none; stroke-width: 1; stroke-linejoin: miter; stroke-linecap: butt; stroke-dasharray: 2, 2; stroke: rgb(204, 204, 204);"/><path d="M269.41152597402595,128.44463603259942L345,128.44463603259942" stroke="rgb(229,126,0)" id="2026" style="fill: none; stroke-width: 1; stroke-linejoin: miter; stroke-linecap: butt; stroke-dasharray: 2, 2; stroke: rgb(229, 126, 0);"/></g><g id="x-grid-svg"><g id="x-tick-labels-svg date-axis-svg grid-x-svg datawrapper-Dg0HR-inx4wh-svg svelte-qac4x9-svg" transform="translate(0, 343)"><text transform="translate(44.59375, 12) translate(-21.54492, 0) translate(21.544921875, 0)" style="text-anchor: middle;"><tspan fill="rgb(116, 116, 116)" style="font-family: Roboto; font-weight: 400; font-stretch: 100%; font-size: 12px;" x="0" dominant-baseline="auto" y="0">January</tspan></text><text transform="translate(162.71834, 12) translate(-23.49609, 0) translate(23.49609375, 0)" style="text-anchor: middle;"><tspan fill="rgb(116, 116, 116)" style="font-family: Roboto; font-weight: 400; font-stretch: 100%; font-size: 12px;" x="0" dominant-baseline="auto" y="0">February</tspan></text><text transform="translate(269.41153, 12) translate(-16.92969, 0) translate(16.9296875, 0)" style="text-anchor: middle;"><tspan fill="rgb(116, 116, 116)" style="font-family: Roboto; font-weight: 400; font-stretch: 100%; font-size: 12px;" x="0" dominant-baseline="auto" y="0">March</tspan></text><g id="highlighted-ticks-svg"/></g><g id="x-tick-lines-svg grid-x-svg datawrapper-Dg0HR-qlpn97-svg" transform="translate(0, 333)"><line x1="0" x2="0" y1="5" y2="0" transform="translate(44.59375, 0)" style="fill: none; stroke-width: 1; stroke-linejoin: miter; stroke-linecap: butt; stroke: rgb(24, 24, 24);"/><line x1="0" x2="0" y1="5" y2="0" transform="translate(162.71834, 0)" style="fill: none; stroke-width: 1; stroke-linejoin: miter; stroke-linecap: butt; stroke: rgb(24, 24, 24);"/><line x1="0" x2="0" y1="5" y2="0" transform="translate(269.41153, 0)" style="fill: none; stroke-width: 1; stroke-linejoin: miter; stroke-linecap: butt; stroke: rgb(24, 24, 24);"/></g></g><g id="y-grid-svg"><g id="y-tick-labels-svg number-axis-svg grid-y-svg datawrapper-Dg0HR-1fzbge6-svg"><text transform="translate(0, 244.75) translate(0, 0)"><tspan fill="rgb(162, 162, 162)" style="font-family: Roboto; font-weight: 400; font-stretch: 100%; font-size: 12px;" x="0" dominant-baseline="auto" y="0">500</tspan></text><text transform="translate(0, 161.5) translate(0, 0)"><tspan fill="rgb(162, 162, 162)" style="font-family: Roboto; font-weight: 400; font-stretch: 100%; font-size: 12px;" x="0" dominant-baseline="auto" y="0">1,000</tspan></text><text transform="translate(0, 78.25) translate(0, 0)"><tspan fill="rgb(162, 162, 162)" style="font-family: Roboto; font-weight: 400; font-stretch: 100%; font-size: 12px;" x="0" dominant-baseline="auto" y="0">1,500</tspan></text><text transform="translate(0, -5) translate(0, 0)"><tspan fill="rgb(162, 162, 162)" style="font-family: Roboto; font-weight: 400; font-stretch: 100%; font-size: 12px;" x="0" dominant-baseline="auto" y="0">2,000</tspan></text></g><g id="y-base-lines-svg grid-y-svg datawrapper-Dg0HR-1ro4gsw-svg"><line x1="348" x2="0" y1="0" y2="0" transform="translate(0, 333)" style="fill: none; stroke-width: 1; stroke-linejoin: miter; stroke-linecap: square; stroke: rgb(24, 24, 24);"/></g></g><g id="value-labels-svg"/><g id="inner-value-labels-svg"/></g></g><text transform="translate(348, 97.40625)" id="2022"><tspan fill="rgb(119,119,119)" x="0" y="12" style="font-family: Roboto; font-weight: 400; font-stretch: 100%; font-size: 12px;">2022</tspan></text><text transform="translate(348, 79.546875)" id="2023"><tspan fill="rgb(119,119,119)" x="0" y="12" style="font-family: Roboto; font-weight: 400; font-stretch: 100%; font-size: 12px;">2023</tspan></text><text transform="translate(348, 115.59375)" id="2024"><tspan fill="rgb(119,119,119)" x="0" y="12" style="font-family: Roboto; font-weight: 400; font-stretch: 100%; font-size: 12px;">2024</tspan></text><text transform="translate(348, 61.34375)" id="2025"><tspan fill="rgb(119,119,119)" x="0" y="12" style="font-family: Roboto; font-weight: 400; font-stretch: 100%; font-size: 12px;">2025</tspan></text><text transform="translate(348, 137.4375)" id="2026"><tspan fill="rgb(187,91,0)" x="0" y="12" style="font-family: Roboto; font-weight: 400; font-stretch: 100%; font-size: 12px;">2026</tspan></text><g id="tooltip-layer-svg"><g id="group-svg" transform="translate(0, 16)"/></g></g></g></g><g id="container-svg container-footer-svg datawrapper-Dg0HR-1la8dcw-svg"><text transform="translate(0, 394)"><tspan fill="rgb(136,136,136)" x="0" y="11" style="font-family: Roboto; font-weight: 400; font-stretch: 100%; font-size: 11px;">Chart:</tspan><tspan fill="rgb(136,136,136)" dx="2.734375" style="font-family: Roboto; font-weight: 400; font-stretch: 100%; font-size: 11px;">Seulgi Jung</tspan><tspan fill="rgb(136,136,136)" dx="2.739" style="font-family: Roboto; font-weight: 400; font-stretch: 100%; font-size: 11px;">•</tspan><tspan fill="rgb(136,136,136)" dx="2.739" style="font-family: Roboto; font-weight: 400; font-stretch: 100%; font-size: 11px;">Source:</tspan><tspan fill="rgb(136,136,136)" dx="2.515625" style="font-family: Roboto; font-weight: 400; font-stretch: 100%; font-size: 11px;">The Hamilton Project</tspan><tspan fill="rgb(136,136,136)" dx="2.739" style="font-family: Roboto; font-weight: 400; font-stretch: 100%; font-size: 11px;">•</tspan><tspan fill="rgb(136,136,136)" dx="2.739" style="font-family: Roboto; font-weight: 400; font-stretch: 100%; font-size: 11px;">Created with</tspan><tspan fill="rgb(136,136,136)" x="0" y="24" style="font-family: Roboto; font-weight: 400; font-stretch: 100%; font-size: 11px;">Datawrapper</tspan></text></g></g></g></g></g></svg>