<svg xmlns="http://www.w3.org/2000/svg" xmlns:xlink="http://www.w3.org/1999/xlink" id="exportSvg" width="620" height="400"><defs/><rect width="620" height="400" transform="translate(0, 0)" fill="rgb(255, 255, 255)" style="fill: rgb(255, 255, 255);"/><g><g><g id="__svelte-dw-svg" clip-path="url(#rect-mask-kwqEE16MQEL_BhyrtEWcF)"><clipPath id="rect-mask-kwqEE16MQEL_BhyrtEWcF"><rect x="0" y="0" width="620" height="400"/></clipPath><g id="container-svg container-body-svg datawrapper-Dg0HR-8pdpge-svg"><g id="container-svg container-bodyTop-svg datawrapper-Dg0HR-lmtz6e-svg"><g id="container-svg container-bodyCenter-svg datawrapper-Dg0HR-1fgvipr-svg"><g id="chart-svg"><g id="svg-main-svg"><g id="group-svg" transform="translate(0, 16)"><g id="x-grid-svg"/><g id="y-grid-svg"><g id="y-grid-lines-svg grid-y-svg datawrapper-Dg0HR-1mqm0ow-svg"><line x1="0" x2="593" y1="0" y2="0" style="fill: none; stroke-width: 1; stroke-linejoin: miter; stroke-linecap: butt; stroke: rgb(231, 231, 231);"/><line x1="0" x2="593" y1="0" y2="0" transform="translate(0, 81.5)" style="fill: none; stroke-width: 1; stroke-linejoin: miter; stroke-linecap: butt; stroke: rgb(231, 231, 231);"/><line x1="0" x2="593" y1="0" y2="0" transform="translate(0, 163)" style="fill: none; stroke-width: 1; stroke-linejoin: miter; stroke-linecap: butt; stroke: rgb(231, 231, 231);"/><line x1="0" x2="593" y1="0" y2="0" transform="translate(0, 244.5)" style="fill: none; stroke-width: 1; stroke-linejoin: miter; stroke-linecap: butt; stroke: rgb(231, 231, 231);"/></g></g><g id="area-fills-svg"/><g id="lines-svg"><g id="2022-svg"><g id="2022-svg"><path d="M51.586,326L58.578,310.804L65.571,307.85L72.563,305.32L79.555,302.445L86.547,299.628L93.54,299.628L100.532,299.628L107.524,296.86L114.517,294.054L121.509,287.814L128.501,284.575L135.494,281.713L142.486,281.713L149.478,281.713L156.47,281.713L163.463,278.371L170.455,272.061L177.447,269.875L184.44,265.871L191.432,265.871L198.424,265.871L205.416,263.578L212.409,260.483L219.401,254.558L226.393,251.568L233.386,248.894L240.378,248.894L247.37,248.894L254.362,245.367L261.355,231.45L268.347,228.612L275.339,222.411L282.332,219.686L289.324,219.686L296.316,219.686L303.308,217.086L310.301,213.864L317.293,207.395L324.285,204.121L331.278,202.306L338.27,202.306L345.262,202.306L352.254,199.878L359.247,188.9L366.239,182.138L373.231,179.174L380.224,176.337L387.216,176.337L394.208,176.337L401.2,176.337L408.193,169.985L415.185,163.228L422.177,154.574L429.17,151.78L436.162,151.78L443.154,151.78L450.147,147.836L457.139,147.836L457.139,135.172L464.131,129.713L471.123,123.734L478.116,120.733L485.108,120.733L492.1,120.733L499.093,117.624L506.085,114.274L513.077,105.958L520.069,102.495L527.062,100.334L534.054,100.334L541.046,100.334L548.039,97.984L555.031,94.372L562.023,86.654L569.015,83.95L576.008,81.063L583,81.063" stroke="rgb(204,204,204)" id="2022" style="fill: none; stroke-width: 1; stroke-linejoin: round; stroke-linecap: round; stroke: rgb(204, 204, 204);"/></g></g><g id="2023-svg"><g id="2023-svg"><path d="M51.586,326L58.578,309.175L65.571,306.233L72.563,303.142L79.555,300.444L86.547,300.444L93.54,300.444L100.532,297.727L107.524,295.07L114.517,288.565L121.509,280.899L128.501,278.321L135.494,278.321L142.486,278.321L149.478,278.321L156.47,274.866L163.463,268.448L170.455,266.121L177.447,262.643L184.44,262.643L191.432,262.643L198.424,260.118L205.416,257.94L212.409,252.08L219.401,249.441L226.393,247.242L233.386,247.242L240.378,247.242L247.37,245.079L254.362,240.588L261.355,225.387L268.347,223.433L275.339,216.962L282.332,216.962L289.324,216.962L296.316,214.595L303.308,211.965L310.301,204.912L317.293,202.67L324.285,200.317L331.278,200.317L338.27,200.317L345.262,197.902L352.254,195.61L359.247,180.129L366.239,177.818L373.231,175.285L380.224,175.285L387.216,175.285L394.208,175.285L401.2,171.771L408.193,161.366L415.185,152.691L422.177,150.289L429.17,150.289L436.162,150.289L443.154,147.535L450.147,143.254L457.139,143.254L457.139,127.449L464.131,124.982L471.123,118.424L478.116,118.424L485.108,118.424L492.1,115.528L499.093,112.475L506.085,105.044L513.077,102.297L520.069,94.327L527.062,94.327L534.054,94.327L541.046,91.38L548.039,88.715L555.031,80.49L562.023,78.113L569.015,75.329L576.008,75.329L583,75.329" stroke="rgb(204,204,204)" id="2023" style="fill: none; stroke-width: 1; stroke-linejoin: round; stroke-linecap: round; stroke: rgb(204, 204, 204);"/></g></g><g id="2024-svg"><g id="2024-svg"><path d="M44.594,326L51.586,312.857L58.578,307.342L65.571,304.994L72.563,302.304L79.555,302.304L86.547,302.304L93.54,299.806L100.532,297.354L107.524,291.321L114.517,282.481L121.509,279.113L128.501,279.113L135.494,279.113L142.486,279.113L149.478,275.956L156.47,269.858L163.463,267.488L170.455,264.849L177.447,264.849L184.44,264.849L191.432,261.541L198.424,259.434L205.416,253.778L212.409,250.983L219.401,248.73L226.393,248.73L233.386,248.73L240.378,246.406L247.37,244.333L254.362,239.259L261.355,224.308L268.347,218.027L275.339,218.027L282.332,218.027L289.324,215.704L296.316,213.392L303.308,211.083L310.301,208.723L317.293,206.931L324.285,206.931L331.278,206.931L338.27,204.947L345.262,202.297L352.254,195.627L359.247,183.668L366.239,181.101L373.231,181.101L380.224,181.101L387.216,181.101L394.208,178.389L401.2,171.817L408.193,160.925L415.185,158.146L422.177,158.146L429.17,158.146L436.162,155.791L443.154,152.969L450.147,144.679L457.139,140.101L457.139,121.997L464.131,121.997L471.123,121.997L478.116,119.229L485.108,116.429L492.1,112.708L499.093,110.571L506.085,108.111L513.077,108.111L520.069,108.111L527.062,105.94L534.054,102.789L541.046,95.181L548.039,92.622L555.031,88.501L562.023,88.501L569.015,88.501L576.008,86.027L583,83.57" stroke="rgb(204,204,204)" id="2024" style="fill: none; stroke-width: 1; stroke-linejoin: round; stroke-linecap: round; stroke: rgb(204, 204, 204);"/></g></g><g id="2025-svg"><g id="2025-svg"><path d="M44.594,326L51.586,314.152L58.578,307.896L65.571,307.896L72.563,307.896L79.555,305.415L86.547,302.77L93.54,296.238L100.532,294.413L107.524,293.435L114.517,293.435L121.509,293.435L128.501,290.453L135.494,288.09L142.486,278.692L149.478,276.259L156.47,273.496L163.463,273.496L170.455,273.496L177.447,273.496L184.44,270.905L191.432,263.025L198.424,260.481L205.416,258.361L212.409,258.361L219.401,258.361L226.393,256.678L233.386,254.698L240.378,251.283L247.37,248.3L254.362,229.5L261.355,229.5L268.347,229.5L275.339,221.913L282.332,219.416L289.324,217.151L296.316,214.542L303.308,212.303L310.301,212.303L317.293,212.303L324.285,209.882L331.278,207.364L338.27,200.328L345.262,198.085L352.254,194.541L359.247,194.541L366.239,194.541L373.231,194.541L380.224,181.675L387.216,174.955L394.208,171.378L401.2,167.431L408.193,167.431L415.185,167.431L422.177,161.808L429.17,157.64L436.162,146.982L443.154,144.167L450.147,126.469L457.139,126.469L457.139,126.469L464.131,126.469L471.123,118.162L478.116,115.105L485.108,110.693L492.1,107.998L499.093,104.613L506.085,104.613L513.077,104.613L520.069,101.75L527.062,99.933L534.054,90.383L541.046,87.957L548.039,84.146L555.031,84.146L562.023,84.146L569.015,80.885L576.008,78.771L583,71.275" stroke="rgb(204,204,204)" id="2025" style="fill: none; stroke-width: 1; stroke-linejoin: round; stroke-linecap: round; stroke: rgb(204, 204, 204);"/></g></g><g id="2026-svg"><g id="2026-svg"><path d="M44.594,326L51.586,309.099L58.578,309.099L65.571,309.099L72.563,306.973L79.555,304.293L86.547,302.406L93.54,300.114L100.532,298.112L107.524,298.112L114.517,298.112L121.509,295.862L128.501,293.053L135.494,286.424L142.486,280.958L149.478,278.485L156.47,278.485L163.463,278.485L170.455,278.485L177.447,275.95L184.44,269.435L191.432,265.465L198.424,263.764L205.416,263.764L212.409,263.764L219.401,261.764L226.393,259.825L233.386,253.501L240.378,250.918L247.37,234.458L254.362,234.458L261.355,234.458L268.347,226.428L275.339,220.402L282.332,217.987L289.324,215.661L296.316,213.048L303.308,213.048L310.301,213.048L317.293,210.57L324.285,207.967L331.278,200.227L338.27,197.898L345.262,194.207L352.254,194.207L359.247,194.207L366.239,194.207L373.231,179.792L380.224,172.813L387.216,169.216L394.208,165.447L401.2,165.447L408.193,165.447L415.185,159.64L422.177,155.603L429.17,144.344L436.162,141.16L443.154,125.745L450.147,125.745L457.139,125.745" stroke="rgb(229,126,0)" id="2026" style="fill: none; stroke-width: 2; stroke-linejoin: round; stroke-linecap: round; stroke: rgb(229, 126, 0);"/></g></g></g><g id="lbl-connect-lines-svg"><path d="M583,81.06344344221932L590,86.74154884059426" stroke="rgb(204,204,204)" id="2022" style="fill: none; stroke-width: 1; stroke-linejoin: miter; stroke-linecap: butt; stroke-dasharray: 2, 2; stroke: rgb(204, 204, 204);"/><path d="M583,75.32922950333476L590,68.87723143149722" stroke="rgb(204,204,204)" id="2023" style="fill: none; stroke-width: 1; stroke-linejoin: miter; stroke-linecap: butt; stroke-dasharray: 2, 2; stroke: rgb(204, 204, 204);"/><path d="M583,83.57010855274457L590,104.93850662597526" stroke="rgb(204,204,204)" id="2024" style="fill: none; stroke-width: 1; stroke-linejoin: miter; stroke-linecap: butt; stroke-dasharray: 2, 2; stroke: rgb(204, 204, 204);"/><path d="M583,71.27479123181197L590,50.68028583204386" stroke="rgb(204,204,204)" id="2025" style="fill: none; stroke-width: 1; stroke-linejoin: miter; stroke-linecap: butt; stroke-dasharray: 2, 2; stroke: rgb(204, 204, 204);"/><path d="M457.1387987012987,125.74459863852077L590,125.74459863852077" stroke="rgb(229,126,0)" id="2026" style="fill: none; stroke-width: 1; stroke-linejoin: miter; stroke-linecap: butt; stroke-dasharray: 2, 2; stroke: rgb(229, 126, 0);"/></g><g id="x-grid-svg"><g id="x-tick-labels-svg date-axis-svg grid-x-svg datawrapper-Dg0HR-inx4wh-svg svelte-qac4x9-svg" transform="translate(0, 336)"><text transform="translate(44.59375, 12) translate(-21.54492, 0) translate(21.544921875, 0)" style="text-anchor: middle;"><tspan fill="rgb(116, 116, 116)" style="font-family: Roboto; font-weight: 400; font-stretch: 100%; font-size: 12px;" x="0" dominant-baseline="auto" y="0">January</tspan></text><text transform="translate(261.35471, 12) translate(-23.49609, 0) translate(23.49609375, 0)" style="text-anchor: middle;"><tspan fill="rgb(116, 116, 116)" style="font-family: Roboto; font-weight: 400; font-stretch: 100%; font-size: 12px;" x="0" dominant-baseline="auto" y="0">February</tspan></text><text transform="translate(457.1388, 12) translate(-16.92969, 0) translate(16.9296875, 0)" style="text-anchor: middle;"><tspan fill="rgb(116, 116, 116)" style="font-family: Roboto; font-weight: 400; font-stretch: 100%; font-size: 12px;" x="0" dominant-baseline="auto" y="0">March</tspan></text><g id="highlighted-ticks-svg"/></g><g id="x-tick-lines-svg grid-x-svg datawrapper-Dg0HR-qlpn97-svg" transform="translate(0, 326)"><line x1="0" x2="0" y1="5" y2="0" transform="translate(44.59375, 0)" style="fill: none; stroke-width: 1; stroke-linejoin: miter; stroke-linecap: butt; stroke: rgb(24, 24, 24);"/><line x1="0" x2="0" y1="5" y2="0" transform="translate(261.35471, 0)" style="fill: none; stroke-width: 1; stroke-linejoin: miter; stroke-linecap: butt; stroke: rgb(24, 24, 24);"/><line x1="0" x2="0" y1="5" y2="0" transform="translate(457.1388, 0)" style="fill: none; stroke-width: 1; stroke-linejoin: miter; stroke-linecap: butt; stroke: rgb(24, 24, 24);"/></g></g><g id="y-grid-svg"><g id="y-tick-labels-svg number-axis-svg grid-y-svg datawrapper-Dg0HR-1fzbge6-svg"><text transform="translate(0, 239.5) translate(0, 0)"><tspan fill="rgb(162, 162, 162)" style="font-family: Roboto; font-weight: 400; font-stretch: 100%; font-size: 12px;" x="0" dominant-baseline="auto" y="0">500</tspan></text><text transform="translate(0, 158) translate(0, 0)"><tspan fill="rgb(162, 162, 162)" style="font-family: Roboto; font-weight: 400; font-stretch: 100%; font-size: 12px;" x="0" dominant-baseline="auto" y="0">1,000</tspan></text><text transform="translate(0, 76.5) translate(0, 0)"><tspan fill="rgb(162, 162, 162)" style="font-family: Roboto; font-weight: 400; font-stretch: 100%; font-size: 12px;" x="0" dominant-baseline="auto" y="0">1,500</tspan></text><text transform="translate(0, -5) translate(0, 0)"><tspan fill="rgb(162, 162, 162)" style="font-family: Roboto; font-weight: 400; font-stretch: 100%; font-size: 12px;" x="0" dominant-baseline="auto" y="0">2,000</tspan></text></g><g id="y-base-lines-svg grid-y-svg datawrapper-Dg0HR-1ro4gsw-svg"><line x1="593" x2="0" y1="0" y2="0" transform="translate(0, 326)" style="fill: none; stroke-width: 1; stroke-linejoin: miter; stroke-linecap: square; stroke: rgb(24, 24, 24);"/></g></g><g id="value-labels-svg"/><g id="inner-value-labels-svg"/></g></g><text transform="translate(593, 95.734375)" id="2022"><tspan fill="rgb(119,119,119)" x="0" y="12" style="font-family: Roboto; font-weight: 400; font-stretch: 100%; font-size: 12px;">2022</tspan></text><text transform="translate(593, 77.875)" id="2023"><tspan fill="rgb(119,119,119)" x="0" y="12" style="font-family: Roboto; font-weight: 400; font-stretch: 100%; font-size: 12px;">2023</tspan></text><text transform="translate(593, 113.9375)" id="2024"><tspan fill="rgb(119,119,119)" x="0" y="12" style="font-family: Roboto; font-weight: 400; font-stretch: 100%; font-size: 12px;">2024</tspan></text><text transform="translate(593, 59.671875)" id="2025"><tspan fill="rgb(119,119,119)" x="0" y="12" style="font-family: Roboto; font-weight: 400; font-stretch: 100%; font-size: 12px;">2025</tspan></text><text transform="translate(593, 134.734375)" id="2026"><tspan fill="rgb(187,91,0)" x="0" y="12" style="font-family: Roboto; font-weight: 400; font-stretch: 100%; font-size: 12px;">2026</tspan></text><g id="tooltip-layer-svg"><g id="group-svg" transform="translate(0, 16)"/></g></g></g></g><g id="container-svg container-footer-svg datawrapper-Dg0HR-1la8dcw-svg"><text transform="translate(0, 387)"><tspan fill="rgb(136,136,136)" x="0" y="11" style="font-family: Roboto; font-weight: 400; font-stretch: 100%; font-size: 11px;">Chart:</tspan><tspan fill="rgb(136,136,136)" dx="2.734375" style="font-family: Roboto; font-weight: 400; font-stretch: 100%; font-size: 11px;">Seulgi Jung</tspan><tspan fill="rgb(136,136,136)" dx="2.739" style="font-family: Roboto; font-weight: 400; font-stretch: 100%; font-size: 11px;">•</tspan><tspan fill="rgb(136,136,136)" dx="2.739" style="font-family: Roboto; font-weight: 400; font-stretch: 100%; font-size: 11px;">Source:</tspan><tspan fill="rgb(136,136,136)" dx="2.515625" style="font-family: Roboto; font-weight: 400; font-stretch: 100%; font-size: 11px;">The Hamilton Project</tspan><tspan fill="rgb(136,136,136)" dx="2.739" style="font-family: Roboto; font-weight: 400; font-stretch: 100%; font-size: 11px;">•</tspan><tspan fill="rgb(136,136,136)" dx="2.739" style="font-family: Roboto; font-weight: 400; font-stretch: 100%; font-size: 11px;">Created with</tspan><tspan fill="rgb(136,136,136)" dx="2.734375" style="font-family: Roboto; font-weight: 400; font-stretch: 100%; font-size: 11px;">Datawrapper</tspan></text></g></g></g></g></g></svg>