<svg xmlns="http://www.w3.org/2000/svg" xmlns:xlink="http://www.w3.org/1999/xlink" version="1.1" class="marks" width="1651" height="597" viewBox="0 0 1651 597"><rect width="1651" height="597" fill="white"/><g fill="none" stroke-miterlimit="10" transform="translate(44,10)"><g class="mark-group role-frame root" role="graphics-object" aria-roledescription="group mark container"><g transform="translate(0,0)"><path class="background" aria-hidden="true" d="M0.5,0.5h1600v550h-1600Z" stroke="#ddd"/><g><g class="mark-group role-axis" role="graphics-symbol" aria-roledescription="axis" aria-label="X-axis titled 'year' for a time scale with values from 1980 to 2024"><g transform="translate(0.5,550.5)"><path class="background" aria-hidden="true" d="M0,0h0v0h0Z" pointer-events="none"/><g><g class="mark-rule role-axis-tick" pointer-events="none"><line transform="translate(0,0)" x2="0" y2="5" stroke="#888" stroke-width="1" opacity="1"/><line transform="translate(36,0)" x2="0" y2="5" stroke="#888" stroke-width="1" opacity="1"/><line transform="translate(73,0)" x2="0" y2="5" stroke="#888" stroke-width="1" opacity="1"/><line transform="translate(109,0)" x2="0" y2="5" stroke="#888" stroke-width="1" opacity="1"/><line transform="translate(145,0)" x2="0" y2="5" stroke="#888" stroke-width="1" opacity="1"/><line transform="translate(182,0)" x2="0" y2="5" stroke="#888" stroke-width="1" opacity="1"/><line transform="translate(218,0)" x2="0" y2="5" stroke="#888" stroke-width="1" opacity="1"/><line transform="translate(255,0)" x2="0" y2="5" stroke="#888" stroke-width="1" opacity="1"/><line transform="translate(291,0)" x2="0" y2="5" stroke="#888" stroke-width="1" opacity="1"/><line transform="translate(327,0)" x2="0" y2="5" stroke="#888" stroke-width="1" opacity="1"/><line transform="translate(364,0)" x2="0" y2="5" stroke="#888" stroke-width="1" opacity="1"/><line transform="translate(400,0)" x2="0" y2="5" stroke="#888" stroke-width="1" opacity="1"/><line transform="translate(436,0)" x2="0" y2="5" stroke="#888" stroke-width="1" opacity="1"/><line transform="translate(473,0)" x2="0" y2="5" stroke="#888" stroke-width="1" opacity="1"/><line transform="translate(509,0)" x2="0" y2="5" stroke="#888" stroke-width="1" opacity="1"/><line transform="translate(545,0)" x2="0" y2="5" stroke="#888" stroke-width="1" opacity="1"/><line transform="translate(582,0)" x2="0" y2="5" stroke="#888" stroke-width="1" opacity="1"/><line transform="translate(618,0)" x2="0" y2="5" stroke="#888" stroke-width="1" opacity="1"/><line transform="translate(655,0)" x2="0" y2="5" stroke="#888" stroke-width="1" opacity="1"/><line transform="translate(691,0)" x2="0" y2="5" stroke="#888" stroke-width="1" opacity="1"/><line transform="translate(727,0)" x2="0" y2="5" stroke="#888" stroke-width="1" opacity="1"/><line transform="translate(764,0)" x2="0" y2="5" stroke="#888" stroke-width="1" opacity="1"/><line transform="translate(800,0)" x2="0" y2="5" stroke="#888" stroke-width="1" opacity="1"/><line transform="translate(836,0)" x2="0" y2="5" stroke="#888" stroke-width="1" opacity="1"/><line transform="translate(873,0)" x2="0" y2="5" stroke="#888" stroke-width="1" opacity="1"/><line transform="translate(909,0)" x2="0" y2="5" stroke="#888" stroke-width="1" opacity="1"/><line transform="translate(946,0)" x2="0" y2="5" stroke="#888" stroke-width="1" opacity="1"/><line transform="translate(982,0)" x2="0" y2="5" stroke="#888" stroke-width="1" opacity="1"/><line transform="translate(1018,0)" x2="0" y2="5" stroke="#888" stroke-width="1" opacity="1"/><line transform="translate(1055,0)" x2="0" y2="5" stroke="#888" stroke-width="1" opacity="1"/><line transform="translate(1091,0)" x2="0" y2="5" stroke="#888" stroke-width="1" opacity="1"/><line transform="translate(1127,0)" x2="0" y2="5" stroke="#888" stroke-width="1" opacity="1"/><line transform="translate(1164,0)" x2="0" y2="5" stroke="#888" stroke-width="1" opacity="1"/><line transform="translate(1200,0)" x2="0" y2="5" stroke="#888" stroke-width="1" opacity="1"/><line transform="translate(1236,0)" x2="0" y2="5" stroke="#888" stroke-width="1" opacity="1"/><line transform="translate(1273,0)" x2="0" y2="5" stroke="#888" stroke-width="1" opacity="1"/><line transform="translate(1309,0)" x2="0" y2="5" stroke="#888" stroke-width="1" opacity="1"/><line transform="translate(1346,0)" x2="0" y2="5" stroke="#888" stroke-width="1" opacity="1"/><line transform="translate(1382,0)" x2="0" y2="5" stroke="#888" stroke-width="1" opacity="1"/><line transform="translate(1418,0)" x2="0" y2="5" stroke="#888" stroke-width="1" opacity="1"/><line transform="translate(1455,0)" x2="0" y2="5" stroke="#888" stroke-width="1" opacity="1"/><line transform="translate(1491,0)" x2="0" y2="5" stroke="#888" stroke-width="1" opacity="1"/><line transform="translate(1527,0)" x2="0" y2="5" stroke="#888" stroke-width="1" opacity="1"/><line transform="translate(1564,0)" x2="0" y2="5" stroke="#888" stroke-width="1" opacity="1"/><line transform="translate(1600,0)" x2="0" y2="5" stroke="#888" stroke-width="1" opacity="1"/></g><g class="mark-text role-axis-label" pointer-events="none"><text text-anchor="start" transform="translate(0,15)" font-family="sans-serif" font-size="10px" fill="#000" opacity="1">1980</text><text text-anchor="middle" transform="translate(36.43830502146724,15)" font-family="sans-serif" font-size="10px" fill="#000" opacity="1">1981</text><text text-anchor="middle" transform="translate(72.77705183249331,15)" font-family="sans-serif" font-size="10px" fill="#000" opacity="1">1982</text><text text-anchor="middle" transform="translate(109.11579864351938,15)" font-family="sans-serif" font-size="10px" fill="#000" opacity="1">1983</text><text text-anchor="middle" transform="translate(145.45454545454547,15)" font-family="sans-serif" font-size="10px" fill="#000" opacity="1">1984</text><text text-anchor="middle" transform="translate(181.89285047601268,15)" font-family="sans-serif" font-size="10px" fill="#000" opacity="1">1985</text><text text-anchor="middle" transform="translate(218.23159728703877,15)" font-family="sans-serif" font-size="10px" fill="#000" opacity="1">1986</text><text text-anchor="middle" transform="translate(254.57034409806485,15)" font-family="sans-serif" font-size="10px" fill="#000" opacity="1">1987</text><text text-anchor="middle" transform="translate(290.90909090909093,15)" font-family="sans-serif" font-size="10px" fill="#000" opacity="1">1988</text><text text-anchor="middle" transform="translate(327.34739593055815,15)" font-family="sans-serif" font-size="10px" fill="#000" opacity="1">1989</text><text text-anchor="middle" transform="translate(363.68614274158426,15)" font-family="sans-serif" font-size="10px" fill="#000" opacity="1">1990</text><text text-anchor="middle" transform="translate(400.0248895526103,15)" font-family="sans-serif" font-size="10px" fill="#000" opacity="1">1991</text><text text-anchor="middle" transform="translate(436.3636363636363,15)" font-family="sans-serif" font-size="10px" fill="#000" opacity="1">1992</text><text text-anchor="middle" transform="translate(472.8019413851036,15)" font-family="sans-serif" font-size="10px" fill="#000" opacity="1">1993</text><text text-anchor="middle" transform="translate(509.1406881961297,15)" font-family="sans-serif" font-size="10px" fill="#000" opacity="1">1994</text><text text-anchor="middle" transform="translate(545.4794350071558,15)" font-family="sans-serif" font-size="10px" fill="#000" opacity="1">1995</text><text text-anchor="middle" transform="translate(581.8181818181819,15)" font-family="sans-serif" font-size="10px" fill="#000" opacity="1">1996</text><text text-anchor="middle" transform="translate(618.2564868396491,15)" font-family="sans-serif" font-size="10px" fill="#000" opacity="1">1997</text><text text-anchor="middle" transform="translate(654.5952336506751,15)" font-family="sans-serif" font-size="10px" fill="#000" opacity="1">1998</text><text text-anchor="middle" transform="translate(690.9339804617013,15)" font-family="sans-serif" font-size="10px" fill="#000" opacity="1">1999</text><text text-anchor="middle" transform="translate(727.2727272727273,15)" font-family="sans-serif" font-size="10px" fill="#000" opacity="1">2000</text><text text-anchor="middle" transform="translate(763.7110322941945,15)" font-family="sans-serif" font-size="10px" fill="#000" opacity="1">2001</text><text text-anchor="middle" transform="translate(800.0497791052206,15)" font-family="sans-serif" font-size="10px" fill="#000" opacity="1">2002</text><text text-anchor="middle" transform="translate(836.3885259162467,15)" font-family="sans-serif" font-size="10px" fill="#000" opacity="1">2003</text><text text-anchor="middle" transform="translate(872.7272727272726,15)" font-family="sans-serif" font-size="10px" fill="#000" opacity="1">2004</text><text text-anchor="middle" transform="translate(909.16557774874,15)" font-family="sans-serif" font-size="10px" fill="#000" opacity="1">2005</text><text text-anchor="middle" transform="translate(945.5043245597661,15)" font-family="sans-serif" font-size="10px" fill="#000" opacity="1">2006</text><text text-anchor="middle" transform="translate(981.843071370792,15)" font-family="sans-serif" font-size="10px" fill="#000" opacity="1">2007</text><text text-anchor="middle" transform="translate(1018.1818181818181,15)" font-family="sans-serif" font-size="10px" fill="#000" opacity="1">2008</text><text text-anchor="middle" transform="translate(1054.6201232032854,15)" font-family="sans-serif" font-size="10px" fill="#000" opacity="1">2009</text><text text-anchor="middle" transform="translate(1090.9588700143115,15)" font-family="sans-serif" font-size="10px" fill="#000" opacity="1">2010</text><text text-anchor="middle" transform="translate(1127.2976168253376,15)" font-family="sans-serif" font-size="10px" fill="#000" opacity="1">2011</text><text text-anchor="middle" transform="translate(1163.6363636363637,15)" font-family="sans-serif" font-size="10px" fill="#000" opacity="1">2012</text><text text-anchor="middle" transform="translate(1200.074668657831,15)" font-family="sans-serif" font-size="10px" fill="#000" opacity="1">2013</text><text text-anchor="middle" transform="translate(1236.413415468857,15)" font-family="sans-serif" font-size="10px" fill="#000" opacity="1">2014</text><text text-anchor="middle" transform="translate(1272.7521622798831,15)" font-family="sans-serif" font-size="10px" fill="#000" opacity="1">2015</text><text text-anchor="middle" transform="translate(1309.0909090909092,15)" font-family="sans-serif" font-size="10px" fill="#000" opacity="1">2016</text><text text-anchor="middle" transform="translate(1345.5292141123764,15)" font-family="sans-serif" font-size="10px" fill="#000" opacity="1">2017</text><text text-anchor="middle" transform="translate(1381.8679609234025,15)" font-family="sans-serif" font-size="10px" fill="#000" opacity="1">2018</text><text text-anchor="middle" transform="translate(1418.2067077344286,15)" font-family="sans-serif" font-size="10px" fill="#000" opacity="1">2019</text><text text-anchor="middle" transform="translate(1454.5454545454545,15)" font-family="sans-serif" font-size="10px" fill="#000" opacity="1">2020</text><text text-anchor="middle" transform="translate(1490.983759566922,15)" font-family="sans-serif" font-size="10px" fill="#000" opacity="1">2021</text><text text-anchor="middle" transform="translate(1527.3225063779478,15)" font-family="sans-serif" font-size="10px" fill="#000" opacity="1">2022</text><text text-anchor="middle" transform="translate(1563.661253188974,15)" font-family="sans-serif" font-size="10px" fill="#000" opacity="1">2023</text><text text-anchor="end" transform="translate(1600,15)" font-family="sans-serif" font-size="10px" fill="#000" opacity="1">2024</text></g><g class="mark-rule role-axis-domain" pointer-events="none"><line transform="translate(0,0)" x2="1600" y2="0" stroke="#888" stroke-width="1" opacity="1"/></g><g class="mark-text role-axis-title" pointer-events="none"><text text-anchor="middle" transform="translate(800,30)" font-family="sans-serif" font-size="11px" font-weight="bold" fill="#000" opacity="1">year</text></g></g><path class="foreground" aria-hidden="true" d="" pointer-events="none" display="none"/></g></g><g class="mark-group role-axis" role="graphics-symbol" aria-roledescription="axis" aria-label="Y-axis titled 'ratio_above, ratio, y' for a linear scale with values from 103 to 117"><g transform="translate(0.5,0.5)"><path class="background" aria-hidden="true" d="M0,0h0v0h0Z" pointer-events="none"/><g><g class="mark-rule role-axis-tick" pointer-events="none"><line transform="translate(0,550)" x2="-5" y2="0" stroke="#888" stroke-width="1" opacity="1"/><line transform="translate(0,511)" x2="-5" y2="0" stroke="#888" stroke-width="1" opacity="1"/><line transform="translate(0,471)" x2="-5" y2="0" stroke="#888" stroke-width="1" opacity="1"/><line transform="translate(0,432)" x2="-5" y2="0" stroke="#888" stroke-width="1" opacity="1"/><line transform="translate(0,393)" x2="-5" y2="0" stroke="#888" stroke-width="1" opacity="1"/><line transform="translate(0,354)" x2="-5" y2="0" stroke="#888" stroke-width="1" opacity="1"/><line transform="translate(0,314)" x2="-5" y2="0" stroke="#888" stroke-width="1" opacity="1"/><line transform="translate(0,275)" x2="-5" y2="0" stroke="#888" stroke-width="1" opacity="1"/><line transform="translate(0,236)" x2="-5" y2="0" stroke="#888" stroke-width="1" opacity="1"/><line transform="translate(0,196)" x2="-5" y2="0" stroke="#888" stroke-width="1" opacity="1"/><line transform="translate(0,157)" x2="-5" y2="0" stroke="#888" stroke-width="1" opacity="1"/><line transform="translate(0,118)" x2="-5" y2="0" stroke="#888" stroke-width="1" opacity="1"/><line transform="translate(0,79)" x2="-5" y2="0" stroke="#888" stroke-width="1" opacity="1"/><line transform="translate(0,39)" x2="-5" y2="0" stroke="#888" stroke-width="1" opacity="1"/><line transform="translate(0,0)" x2="-5" y2="0" stroke="#888" stroke-width="1" opacity="1"/></g><g class="mark-text role-axis-label" pointer-events="none"><text text-anchor="end" transform="translate(-7,553)" font-family="sans-serif" font-size="10px" fill="#000" opacity="1">103</text><text text-anchor="end" transform="translate(-7,513.7142857142858)" font-family="sans-serif" font-size="10px" fill="#000" opacity="1">104</text><text text-anchor="end" transform="translate(-7,474.42857142857144)" font-family="sans-serif" font-size="10px" fill="#000" opacity="1">105</text><text text-anchor="end" transform="translate(-7,435.1428571428571)" font-family="sans-serif" font-size="10px" fill="#000" opacity="1">106</text><text text-anchor="end" transform="translate(-7,395.8571428571429)" font-family="sans-serif" font-size="10px" fill="#000" opacity="1">107</text><text text-anchor="end" transform="translate(-7,356.57142857142856)" font-family="sans-serif" font-size="10px" fill="#000" opacity="1">108</text><text text-anchor="end" transform="translate(-7,317.2857142857143)" font-family="sans-serif" font-size="10px" fill="#000" opacity="1">109</text><text text-anchor="end" transform="translate(-7,278)" font-family="sans-serif" font-size="10px" fill="#000" opacity="1">110</text><text text-anchor="end" transform="translate(-7,238.71428571428572)" font-family="sans-serif" font-size="10px" fill="#000" opacity="1">111</text><text text-anchor="end" transform="translate(-7,199.42857142857142)" font-family="sans-serif" font-size="10px" fill="#000" opacity="1">112</text><text text-anchor="end" transform="translate(-7,160.14285714285714)" font-family="sans-serif" font-size="10px" fill="#000" opacity="1">113</text><text text-anchor="end" transform="translate(-7,120.85714285714286)" font-family="sans-serif" font-size="10px" fill="#000" opacity="1">114</text><text text-anchor="end" transform="translate(-7,81.5714285714286)" font-family="sans-serif" font-size="10px" fill="#000" opacity="1">115</text><text text-anchor="end" transform="translate(-7,42.28571428571427)" font-family="sans-serif" font-size="10px" fill="#000" opacity="1">116</text><text text-anchor="end" transform="translate(-7,3)" font-family="sans-serif" font-size="10px" fill="#000" opacity="1">117</text></g><g class="mark-rule role-axis-domain" pointer-events="none"><line transform="translate(0,550)" x2="0" y2="-550" stroke="#888" stroke-width="1" opacity="1"/></g><g class="mark-text role-axis-title" pointer-events="none"><text text-anchor="middle" transform="translate(-27.6845703125,275) rotate(-90) translate(0,-2)" font-family="sans-serif" font-size="11px" font-weight="bold" fill="#000" opacity="1">ratio_above, ratio, y</text></g></g><path class="foreground" aria-hidden="true" d="" pointer-events="none" display="none"/></g></g><g class="mark-area role-mark layer_0_marks" role="graphics-object" aria-roledescription="area mark container"><path aria-label="year: 1980; ratio_above: 105.3" role="graphics-symbol" aria-roledescription="area mark" d="M0,459.643L36.438,388.929L72.777,400.714L109.116,381.071L145.455,341.786L181.893,298.571L218.232,208.214L254.57,322.143L290.909,149.286L327.347,204.286L363.686,19.643L400.025,180.714L436.364,133.571L472.802,66.786L509.141,70.714L545.479,149.286L581.818,216.071L618.256,345.714L654.595,271.071L690.934,294.643L727.273,271.071L763.711,314.286L800.05,278.929L836.389,330L872.727,345.714L909.166,361.429L945.504,369.286L981.843,424.286L1018.182,416.429L1054.62,416.429L1090.959,396.786L1127.298,443.929L1163.636,443.929L1200.075,459.643L1236.413,459.643L1272.752,459.643L1309.091,462.786L1345.529,420.357L1381.868,455.714L1418.207,451.786L1454.545,462.786L1490.984,462.786L1527.323,462.786L1563.661,462.786L1600,462.786L1600,462.786L1563.661,462.786L1527.323,462.786L1490.984,462.786L1454.545,462.786L1418.207,462.786L1381.868,462.786L1345.529,462.786L1309.091,462.786L1272.752,462.786L1236.413,462.786L1200.075,462.786L1163.636,462.786L1127.298,462.786L1090.959,462.786L1054.62,462.786L1018.182,462.786L981.843,462.786L945.504,462.786L909.166,462.786L872.727,462.786L836.389,462.786L800.05,462.786L763.711,462.786L727.273,462.786L690.934,462.786L654.595,462.786L618.256,462.786L581.818,462.786L545.479,462.786L509.141,462.786L472.802,462.786L436.364,462.786L400.025,462.786L363.686,462.786L327.347,462.786L290.909,462.786L254.57,462.786L218.232,462.786L181.893,462.786L145.455,462.786L109.116,462.786L72.777,462.786L36.438,462.786L0,462.786Z" fill="url(#gradient_3)"/></g><g class="mark-line role-mark layer_1_marks" role="graphics-object" aria-roledescription="line mark container"><path aria-label="year: Jan 01, 1980; ratio: 105.3" role="graphics-symbol" aria-roledescription="line mark" d="M0,459.643L36.438,388.929L72.777,400.714L109.116,381.071L145.455,341.786L181.893,298.571L218.232,208.214L254.57,322.143L290.909,149.286L327.347,204.286L363.686,19.643L400.025,180.714L436.364,133.571L472.802,66.786L509.141,70.714L545.479,149.286L581.818,216.071L618.256,345.714L654.595,271.071L690.934,294.643L727.273,271.071L763.711,314.286L800.05,278.929L836.389,330L872.727,345.714L909.166,361.429L945.504,369.286L981.843,424.286L1018.182,416.429L1054.62,416.429L1090.959,396.786L1127.298,443.929L1163.636,443.929L1200.075,459.643L1236.413,459.643L1272.752,459.643L1309.091,471.429L1345.529,420.357L1381.868,455.714L1418.207,451.786L1454.545,479.286L1490.984,467.5L1527.323,483.214L1563.661,467.5L1600,471.429" stroke="#C23B22" stroke-width="2"/></g><g class="mark-rule role-mark layer_2_marks" role="graphics-object" aria-roledescription="rule mark container"><line aria-label="y: 105.22" role="graphics-symbol" aria-roledescription="rule mark" transform="translate(1600,462.78571428571433)" x2="-1600" y2="0" stroke="#968987" stroke-width="1" stroke-dasharray="4,4"/></g></g><path class="foreground" aria-hidden="true" d="" display="none"/></g></g></g><defs><linearGradient id="gradient_3" x1="1" x2="1" y1="1" y2="0"><stop offset="0" stop-color="white"/><stop offset="0.5" stop-color="#C23B22"/><stop offset="1" stop-color="#8e1d09"/></linearGradient></defs></svg>